<svg width="359" height="75" viewBox="0 0 359 75" fill="none" xmlns="http://www.w3.org/2000/svg">
<path d="M92.3627 56.1017L95.8468 55.6563V29.1132L92.5368 28.4926V25.7858H98.9337C99.4936 25.7858 100.11 25.7705 100.787 25.7401C101.464 25.7096 101.979 25.683 102.331 25.6525C103.859 25.5345 105.123 25.4736 106.125 25.4736C109.155 25.4736 111.58 25.7858 113.403 26.4063C115.227 27.0269 116.551 27.9748 117.372 29.2464C118.196 30.518 118.605 32.1931 118.605 34.2642C118.605 36.3048 118.06 38.2007 116.974 39.9482C115.885 41.6957 114.311 42.8949 112.253 43.5421C113.43 44.0446 114.474 44.9622 115.386 46.2946C116.297 47.6271 117.266 49.3594 118.299 51.4875C119.032 52.938 119.6 53.9812 119.997 54.617C120.394 55.2528 120.784 55.6144 121.166 55.7058L122.622 56.1512V58.7705H115.125C114.656 58.7705 114.16 58.2908 113.646 57.3276C113.131 56.3682 112.461 54.8492 111.637 52.7781C110.665 50.353 109.829 48.4571 109.121 47.0979C108.414 45.7388 107.665 44.8936 106.87 44.5662H102.327V55.6639L106.386 56.1094V58.7743H92.359V56.1017H92.3627ZM110.317 40.0319C111.258 38.8175 111.728 36.9977 111.728 34.5726C111.728 32.4139 111.266 30.8149 110.339 29.7794C109.412 28.7439 107.816 28.2261 105.554 28.2261C104.729 28.2261 104.033 28.2642 103.458 28.3365C102.883 28.4089 102.509 28.4469 102.335 28.4469V41.7642C102.686 41.8251 103.541 41.8517 104.892 41.8517H106.39C108.066 41.8517 109.375 41.2464 110.317 40.0319Z" fill="#0C1339"/>
<path d="M126.878 55.8124C124.983 53.5205 124.033 50.3911 124.033 46.4241C124.033 43.7591 124.525 41.452 125.513 39.4989C126.496 37.5459 127.888 36.0497 129.681 35.0142C131.474 33.9786 133.547 33.4609 135.9 33.4609C138.84 33.4609 141.106 34.2375 142.695 35.7908C144.283 37.3441 145.104 39.5561 145.165 42.4266C145.165 44.3797 145.048 45.8302 144.813 46.7781H130.476C130.593 49.4698 131.225 51.5637 132.371 53.0599C133.517 54.5561 135.151 55.3022 137.266 55.3022C138.412 55.3022 139.596 55.1119 140.818 54.7236C142.036 54.339 143.001 53.8784 143.708 53.3492L144.813 55.7896C144.019 56.65 142.732 57.438 140.954 58.1652C139.176 58.8885 137.376 59.254 135.552 59.254C131.667 59.254 128.777 58.1081 126.878 55.8124ZM138.987 44.117C139.048 43.287 139.074 42.6512 139.074 42.2096C139.074 38.2731 137.765 36.3048 135.148 36.3048C133.706 36.3048 132.59 36.8835 131.796 38.037C131.002 39.1906 130.559 41.2198 130.472 44.117H138.987V44.117Z" fill="#0C1339"/>
<path d="M153.589 55.1271C153.824 55.4812 154.361 55.8162 155.201 56.1246C156.041 56.4368 156.884 56.5891 157.736 56.5891C159.116 56.5891 160.153 56.2997 160.845 55.7249C161.537 55.1462 161.882 54.3848 161.882 53.4368C161.882 52.4584 161.454 51.6703 160.603 51.0612C159.748 50.4558 158.311 49.7058 156.279 48.8188L155.042 48.2858C153.014 47.4292 151.498 46.3936 150.499 45.1792C149.5 43.9647 149.001 42.3962 149.001 40.4736C149.001 39.1411 149.398 37.9495 150.192 36.8987C150.987 35.848 152.103 35.0256 153.544 34.4355C154.985 33.8454 156.646 33.5485 158.53 33.5485C159.911 33.5485 161.095 33.636 162.082 33.815C163.066 33.9939 164.102 34.2299 165.192 34.5269C165.778 34.7325 166.221 34.8543 166.516 34.8809V40.6944H163.032L162.018 37.3213C161.84 37.0244 161.443 36.7579 160.826 36.5218C160.21 36.2858 159.502 36.1678 158.708 36.1678C157.501 36.1678 156.54 36.4266 155.818 36.9444C155.095 37.4622 154.736 38.1817 154.736 39.0954C154.736 39.9254 154.985 40.6106 155.485 41.1589C155.984 41.7071 156.529 42.1297 157.115 42.4228C157.702 42.7198 158.791 43.2071 160.38 43.8886C161.969 44.57 163.285 45.2211 164.329 45.8416C165.373 46.4622 166.24 47.2693 166.932 48.2591C167.624 49.2528 167.968 50.4558 167.968 51.8759C167.968 54.065 167.113 55.8429 165.411 57.202C163.705 58.565 161.25 59.2426 158.046 59.2426C156.548 59.2426 155.201 59.1094 154.009 58.8429C152.818 58.5764 151.445 58.2223 149.886 57.7769L148.914 57.4647V51.6056H152.576L153.589 55.1271Z" fill="#0C1339"/>
<path d="M172.534 39.7654C173.548 37.7819 175.005 36.2363 176.9 35.1246C178.795 34.0167 181.008 33.4609 183.539 33.4609C184.715 33.4609 185.729 33.5484 186.584 33.7274C187.435 33.9063 188.392 34.1423 189.452 34.4393L190.73 34.7934L190.465 42.3847H186.63L185.529 37.5002C185.351 36.7312 184.485 36.3467 182.926 36.3467C181.28 36.3467 179.994 37.0738 179.067 38.5205C178.141 39.971 177.664 42.2363 177.634 45.3124C177.634 48.5675 178.194 51.0611 179.31 52.7934C180.426 54.5256 181.912 55.3898 183.766 55.3898C186.002 55.3898 188.059 54.7845 189.94 53.57L190.953 55.8771C190.189 56.7071 189.02 57.4761 187.447 58.1842C185.873 58.8962 184.174 59.2502 182.351 59.2502C178.587 59.2502 175.757 58.0814 173.858 55.7439C171.963 53.4063 171.014 50.3416 171.014 46.5535C171.01 44.0142 171.517 41.7489 172.534 39.7654Z" fill="#0C1339"/>
<path d="M212.251 58.5878C211.809 58.1728 211.589 57.5523 211.589 56.7223V55.5231C210.795 56.5015 209.679 57.3657 208.238 58.1195C206.796 58.8733 205.355 59.2502 203.914 59.2502C201.092 59.2502 199.075 58.5193 197.872 57.0535C196.666 55.5878 196.064 53.1703 196.064 49.7972V37.2794L193.859 36.6589V34.1271L201.357 33.5485H201.402L202.283 34.169V49.7934C202.283 51.9558 202.548 53.4634 203.078 54.32C203.607 55.1804 204.591 55.6068 206.032 55.6068C207.769 55.6068 209.384 54.9254 210.886 53.5662V37.2794L207.931 36.6132V34.1271L215.913 33.5485H216L217.059 34.169V56.0104H219.53L219.484 58.5421C219.367 58.5726 218.822 58.6906 217.854 58.8962C216.882 59.1018 215.72 59.2084 214.37 59.2084C213.401 59.2084 212.694 59.0028 212.251 58.5878Z" fill="#0C1339"/>
<path d="M224.44 55.8124C222.545 53.5205 221.595 50.3911 221.595 46.4241C221.595 43.7591 222.087 41.452 223.074 39.4989C224.058 37.5459 225.45 36.0497 227.243 35.0142C229.036 33.9786 231.109 33.4609 233.462 33.4609C236.402 33.4609 238.667 34.2375 240.256 35.7908C241.845 37.3441 242.666 39.5561 242.727 42.4266C242.727 44.3797 242.609 45.8302 242.375 46.7781H228.037C228.155 49.4698 228.786 51.5637 229.933 53.0599C231.079 54.5561 232.713 55.3022 234.828 55.3022C235.974 55.3022 237.158 55.1119 238.38 54.7236C239.598 54.339 240.563 53.8784 241.27 53.3492L242.375 55.7896C241.58 56.65 240.294 57.438 238.516 58.1652C236.738 58.8885 234.938 59.254 233.114 59.254C229.225 59.254 226.339 58.1081 224.44 55.8124ZM236.549 44.117C236.61 43.287 236.636 42.6512 236.636 42.2096C236.636 38.2731 235.327 36.3048 232.709 36.3048C231.268 36.3048 230.152 36.8835 229.358 38.037C228.563 39.1906 228.121 41.2198 228.034 44.117H236.549V44.117Z" fill="#0C1339"/>
<path d="M281.241 38.2997L278.108 37.4545V34.4812L286.181 33.5028H286.268L287.501 34.3898V55.7439L290.456 56.0979V58.7629H278.15V56.0979L281.237 55.6982V38.2997H281.241ZM281.123 29.0561C280.518 28.4469 280.215 27.6665 280.215 26.7109C280.215 25.6106 280.56 24.6969 281.252 23.9736C281.944 23.2502 282.864 22.8885 284.017 22.8885C285.167 22.8885 286.049 23.2007 286.65 23.8213C287.256 24.4457 287.558 25.2185 287.558 26.1474C287.558 27.3048 287.214 28.2337 286.522 28.9304C285.829 29.6271 284.865 29.9736 283.628 29.9736H283.586C282.55 29.9698 281.729 29.6652 281.123 29.0561Z" fill="#0C1339"/>
<path d="M293.634 56.1017L296.104 55.702V38.2997L293.282 37.5002V34.4355L300.605 33.5027L301.135 33.8568L301.797 35.3225V37.188C302.769 36.2401 304.158 35.4063 305.966 34.6791C307.774 33.9558 309.34 33.5903 310.664 33.5903C312.253 33.5903 313.539 33.8568 314.523 34.3898C315.506 34.9228 316.252 35.7527 316.751 36.8758C317.723 35.9888 319.002 35.2197 320.587 34.5687C322.176 33.9177 323.734 33.5903 325.263 33.5903C327.88 33.5903 329.73 34.3593 330.82 35.8974C331.905 37.4355 332.45 39.952 332.45 43.4431V55.6944L335.318 56.0941V58.7591H323.893V56.0941L326.186 55.6944V43.6296C326.186 41.3225 325.913 39.7007 325.369 38.768C324.824 37.8352 323.787 37.3708 322.259 37.3708C321.434 37.3708 320.591 37.5573 319.724 37.9266C318.858 38.2959 318.086 38.7489 317.409 39.2819C317.614 40.4088 317.719 41.8137 317.719 43.5002V55.7096L320.454 56.1093V58.7743H308.939V56.1093L311.364 55.7096V43.4964C311.364 41.9583 311.27 40.7515 311.077 39.8797C310.884 39.0078 310.524 38.372 309.995 37.9723C309.465 37.5725 308.701 37.3746 307.702 37.3746C306.76 37.3746 305.826 37.5878 304.903 38.018C303.976 38.4482 303.144 38.9583 302.41 39.5484V55.7058L305.013 56.1055V58.7705H293.634V56.1017Z" fill="#0C1339"/>
<path d="M340.095 55.8124C338.2 53.5205 337.251 50.3911 337.251 46.4241C337.251 43.7591 337.742 41.452 338.73 39.4989C339.713 37.5459 341.105 36.0497 342.899 35.0142C344.692 33.9786 346.765 33.4609 349.118 33.4609C352.057 33.4609 354.323 34.2375 355.912 35.7908C357.501 37.3441 358.322 39.5561 358.382 42.4266C358.382 44.3797 358.265 45.8302 358.03 46.7781H343.693C343.81 49.4698 344.442 51.5637 345.588 53.0599C346.734 54.5561 348.369 55.3022 350.483 55.3022C351.63 55.3022 352.814 55.1119 354.036 54.7236C355.254 54.339 356.218 53.8784 356.926 53.3492L358.03 55.7896C357.236 56.65 355.95 57.438 354.172 58.1652C352.394 58.8885 350.593 59.254 348.77 59.254C344.881 59.254 341.991 58.1081 340.095 55.8124ZM352.201 44.117C352.261 43.287 352.288 42.6512 352.288 42.2096C352.288 38.2731 350.979 36.3048 348.361 36.3048C346.92 36.3048 345.804 36.8835 345.009 38.037C344.215 39.1906 343.772 41.2198 343.685 44.117H352.201V44.117Z" fill="#0C1339"/>
<path d="M274.95 25.7819H246.426L245.984 33.4228H249.12L250.75 28.9342L257.476 28.4735V55.6753L253.739 56.1017V58.7667H267.766V56.1017L264.025 55.6487V28.4735L270.626 28.9342L272.256 33.4228H275.392L274.95 25.7819Z" fill="#0C1339"/>
<mask id="mask0" mask-type="alpha" maskUnits="userSpaceOnUse" x="1" y="1" width="73" height="73">
<path fill-rule="evenodd" clip-rule="evenodd" d="M69.9085 21.0636H53.5436V4.57886C53.5436 2.74383 52.0569 1.27429 50.2638 1.27429H23.9989C22.1755 1.27429 20.7191 2.77429 20.7191 4.57886V21.0636H4.35035C2.52698 21.0636 1.07055 22.5636 1.07055 24.3682V50.8238C1.07055 52.6588 2.55724 54.1283 4.35035 54.1283H20.7153V70.6131C20.7153 72.4481 22.202 73.9177 23.9951 73.9177H50.26C52.0834 73.9177 53.5398 72.4177 53.5398 70.6131V54.1283H69.9047C71.7281 54.1283 73.1845 52.6284 73.1845 50.8238V24.3682C73.1845 22.5332 71.6978 21.0636 69.9085 21.0636Z" fill="white"/>
</mask>
<g mask="url(#mask0)">
<path fill-rule="evenodd" clip-rule="evenodd" d="M0.919235 74.1271H73.1845V1.03064H0.919235V74.1271Z" fill="url(#paint0_linear)"/>
</g>
<path fill-rule="evenodd" clip-rule="evenodd" d="M69.9085 21.0332H53.5436V4.5484C53.5436 2.71338 52.0569 1.24384 50.2638 1.24384H23.9989C22.1755 1.24384 20.7191 2.74384 20.7191 4.5484V21.0332H4.35035C2.52698 21.0332 1.07055 22.5332 1.07055 24.3377V50.7933C1.07055 52.6283 2.55724 54.0979 4.35035 54.0979H20.7153V70.5827C20.7153 72.4177 22.202 73.8872 23.9951 73.8872H50.26C52.0834 73.8872 53.5398 72.3872 53.5398 70.5827V54.0979H69.9047C71.7281 54.0979 73.1845 52.5979 73.1845 50.7933V24.3377C73.1845 22.5332 71.6978 21.0332 69.9085 21.0332ZM69.9388 48.9278C69.9388 49.9367 69.1179 50.7933 68.0851 50.7933H50.1692V68.839C50.1692 69.8479 49.3483 70.7045 48.3156 70.7045H25.8185C24.816 70.7045 23.9648 69.8783 23.9648 68.839V50.7933H6.05267C5.05019 50.7933 4.19903 49.9672 4.19903 48.9278V26.2337C4.19903 25.2248 5.01993 24.3682 6.05267 24.3682H23.9686V6.32251C23.9686 5.31363 24.7895 4.45703 25.8223 4.45703H48.3534C49.3559 4.45703 50.207 5.28317 50.207 6.32251V24.3682H68.123C69.1255 24.3682 69.9766 25.1943 69.9766 26.2337V48.9278H69.9388Z" fill="#F31E23"/>
<path fill-rule="evenodd" clip-rule="evenodd" d="M63.1976 37.457L56.6077 32.4735L57.6102 35.622L42.9135 34.5826C43.3675 35.5002 43.6436 36.509 43.6436 37.5788C43.6436 38.6182 43.4015 39.5966 43.0043 40.4532L57.6405 39.353L56.6683 42.4405L63.1976 37.457Z" fill="#1F191A"/>
<path fill-rule="evenodd" clip-rule="evenodd" d="M40.3638 37.3352V37.1829L38.9377 13.358L42.0056 14.3365L37.0538 7.73114L32.1057 14.3669L35.2342 13.358L33.8685 37.2134V37.2743V37.5179V37.5484C33.8685 39.353 35.325 40.853 37.1483 40.853C38.9415 40.853 40.4282 39.3834 40.4282 37.5484V37.5179L40.3638 37.3352Z" fill="#1F191A"/>
<defs>
<linearGradient id="paint0_linear" x1="16.4342" y1="16.8144" x2="62.6825" y2="62.3432" gradientUnits="userSpaceOnUse">
<stop stop-color="white"/>
<stop offset="1" stop-color="#BBC7D1"/>
</linearGradient>
</defs>
</svg>
