<svg width="39" height="45" viewBox="0 0 39 45" fill="none" xmlns="http://www.w3.org/2000/svg">
<path d="M19.4999 0C18.9866 0 18.5713 0.41931 18.5713 0.937498V4.68749C18.5713 5.20569 18.9867 5.62499 19.4999 5.62499C20.0132 5.62499 20.4285 5.20568 20.4285 4.68749V0.937498C20.4285 0.419296 20.0132 0 19.4999 0ZM6.36944 5.49327C6.13186 5.49327 5.89791 5.58848 5.71656 5.77159C5.35384 6.1378 5.35384 6.72371 5.71656 7.08995L8.34266 9.74128C8.70538 10.1075 9.28571 10.1075 9.64846 9.74128C10.0112 9.37507 10.0112 8.78916 9.64846 8.42293L7.02237 5.77159C6.84101 5.58849 6.60705 5.49327 6.36949 5.49327H6.36944ZM32.6304 5.49327C32.3928 5.49327 32.1588 5.58848 31.9775 5.77159L29.3514 8.42293C28.9887 8.78914 28.9887 9.37505 29.3514 9.74128C29.7141 10.1075 30.2945 10.1075 30.6572 9.74128L33.2833 7.08995C33.646 6.72374 33.646 6.13782 33.2833 5.77159C33.1019 5.58849 32.868 5.49327 32.6304 5.49327H32.6304ZM19.4999 8.43758C13.8379 8.43758 8.35705 12.8724 8.35705 19.1457C8.35705 26.8214 13.7237 28.7733 14.3347 33.75H24.6651C25.2763 28.7733 30.6428 26.8214 30.6428 19.1457C30.6428 12.8724 25.1619 8.43758 19.4999 8.43758V8.43758ZM18.4697 10.8399C19.0755 10.8106 19.5888 11.1219 19.5724 11.7334C19.5869 12.2242 19.1589 12.6856 18.6729 12.7002C15.2089 13.1086 12.5355 16.0712 12.5355 19.6874C12.5355 20.407 12.6407 21.0991 12.8402 21.7528C13.0342 22.2344 12.7368 22.8478 12.2453 22.9979C11.7539 23.148 11.1735 22.8038 11.0701 22.2948C10.818 21.4672 10.6784 20.5974 10.6784 19.6874C10.6784 15.1317 14.0862 11.3563 18.4696 10.8397L18.4697 10.8399ZM0.928571 18.7501C0.415304 18.7501 0 19.1694 0 19.6876C0 20.2057 0.415318 20.6251 0.928571 20.6251H4.64286C5.15612 20.6251 5.57143 20.2057 5.57143 19.6876C5.57143 19.1694 5.15611 18.7501 4.64286 18.7501H0.928571ZM34.3571 18.7501C33.8439 18.7501 33.4286 19.1694 33.4286 19.6876C33.4286 20.2057 33.8439 20.6251 34.3571 20.6251H38.0714C38.5847 20.6251 39 20.2057 39 19.6876C39 19.1694 38.5847 18.7501 38.0714 18.7501H34.3571ZM14.3929 35.625V37.5H24.6071V35.625H14.3929ZM14.3929 39.375V40.3125C14.3929 41.3892 15.2706 42.1875 16.25 42.1875H17.6429V43.125C17.6429 44.1632 18.4717 45 19.5 45C20.5283 45 21.3571 44.1632 21.3571 43.125V42.1875H22.75C23.7294 42.1875 24.6071 41.3892 24.6071 40.3125V39.375H14.3929Z" fill="#FFDD29"/>
</svg>
