<?xml version="1.0" standalone="no"?>
<!DOCTYPE svg PUBLIC "-//W3C//DTD SVG 20010904//EN"
 "http://www.w3.org/TR/2001/REC-SVG-20010904/DTD/svg10.dtd">
<svg version="1.0" xmlns="http://www.w3.org/2000/svg"
 width="16.000000pt" height="16.000000pt" viewBox="0 0 16.000000 16.000000"
 preserveAspectRatio="xMidYMid meet">
<metadata>
Created by potrace 1.11, written by Peter Selinger 2001-2013
</metadata>
<g transform="translate(0.000000,16.000000) scale(0.002130,-0.002130)"
fill="#000000" stroke="none">
<path d="M3709 7503 c-1 -4 -1 -10 -1 -13 1 -7 -40 -6 -54 1 -11 6 -23 5 -45
-5 -9 -4 -41 -6 -70 -4 -34 2 -58 -2 -64 -9 -9 -12 -115 -26 -180 -24 -24 1
-27 -1 -15 -10 12 -8 11 -9 -6 -4 -12 3 -45 -6 -80 -21 -48 -21 -76 -27 -149
-28 -49 -1 -99 -7 -110 -13 -11 -6 -51 -16 -90 -24 -38 -7 -74 -19 -80 -25 -5
-6 -27 -17 -47 -23 -20 -7 -47 -20 -60 -30 -13 -10 -39 -22 -58 -26 -19 -4
-46 -15 -60 -24 -14 -10 -43 -23 -65 -29 -48 -14 -146 -81 -160 -108 -21 -42
-84 -105 -128 -128 -75 -40 -100 -58 -127 -89 -75 -88 -107 -120 -134 -134
-38 -19 -96 -73 -96 -88 0 -7 -9 -22 -20 -35 -11 -13 -20 -30 -20 -39 0 -9
-12 -39 -27 -66 -14 -28 -32 -82 -39 -122 -7 -40 -22 -86 -33 -102 -12 -16
-21 -37 -21 -46 0 -9 -11 -36 -25 -59 -14 -24 -22 -46 -18 -49 3 -4 -2 -17
-13 -29 -12 -13 -13 -18 -4 -13 12 7 -62 -88 -90 -115 -37 -37 -62 -72 -47
-67 15 6 16 2 10 -21 -3 -15 -7 -43 -8 -62 -1 -45 -23 -117 -47 -151 -9 -14
-15 -29 -12 -32 7 -7 -30 -61 -80 -114 -38 -41 -39 -43 -28 -84 6 -24 9 -46 6
-51 -3 -4 0 -8 5 -8 16 0 13 -36 -4 -50 -8 -7 -15 -18 -15 -24 0 -6 4 -4 10 4
6 10 9 5 8 -18 -1 -25 -11 -42 -44 -72 -24 -22 -48 -40 -54 -40 -6 0 -9 -4 -5
-10 3 -5 13 -6 23 -3 15 6 15 5 3 -10 -12 -15 -10 -18 10 -26 l24 -10 -23 -7
c-12 -3 -22 -10 -22 -15 0 -5 8 -5 17 -2 12 5 15 2 10 -10 -3 -9 -2 -17 4 -17
6 0 3 -7 -5 -16 -9 -8 -14 -20 -11 -25 3 -4 -16 -31 -42 -60 -26 -28 -47 -55
-45 -61 2 -6 -5 -19 -15 -30 -16 -17 -16 -18 0 -12 10 3 17 1 17 -6 0 -6 5 -8
12 -4 7 5 9 2 5 -9 -4 -12 -2 -14 10 -10 12 5 15 2 10 -10 -4 -11 -2 -14 9
-10 7 3 14 0 14 -6 0 -6 -4 -11 -10 -11 -5 0 -10 -7 -10 -16 0 -9 -9 -28 -19
-43 -18 -24 -18 -30 -6 -52 29 -51 35 -72 34 -127 -1 -34 7 -84 20 -122 24
-75 41 -180 41 -261 0 -55 32 -184 51 -204 5 -5 9 -20 9 -34 0 -13 4 -38 10
-55 17 -56 87 -261 95 -281 8 -18 7 -18 -8 -6 -9 7 -14 17 -11 22 3 5 0 9 -5
9 -18 0 -12 -51 14 -116 14 -35 27 -76 29 -92 2 -16 7 -35 11 -42 19 -30 24
-83 9 -98 -11 -11 -12 -17 -3 -28 6 -8 8 -14 3 -14 -5 0 -1 -5 9 -11 16 -10
23 -39 11 -51 -10 -11 -45 5 -40 17 2 7 -4 15 -15 18 -22 6 -25 -13 -9 -44 9
-16 7 -21 -11 -27 -20 -8 -19 -9 15 -33 20 -13 36 -30 36 -36 0 -7 9 -13 20
-13 11 0 20 -4 20 -9 0 -13 -28 -33 -38 -27 -5 3 -20 -3 -32 -14 l-23 -20 27
-51 c30 -58 31 -63 14 -53 -10 5 -10 4 -2 -5 6 -6 34 -15 63 -20 64 -10 71
-17 35 -33 -16 -7 -36 -22 -45 -32 -16 -20 -16 -20 -23 2 -4 12 -11 22 -16 22
-8 0 -34 -59 -31 -72 0 -5 -6 -8 -14 -8 -9 0 -12 -6 -9 -15 4 -8 1 -22 -6 -30
-21 -26 -2 -73 41 -102 44 -29 41 -40 -13 -53 -32 -8 -32 -8 -5 -9 17 -1 26
-5 22 -11 -4 -6 -16 -8 -26 -5 -11 4 -26 1 -34 -5 -8 -6 -19 -8 -26 -4 -7 4
-10 2 -7 -6 2 -7 18 -21 36 -30 17 -10 29 -20 26 -22 -2 -3 15 -11 40 -17 49
-12 64 -27 47 -44 -17 -17 -13 -27 9 -27 25 0 26 -15 3 -30 -17 -10 -16 -10 2
-9 39 3 45 -1 45 -27 0 -21 4 -24 20 -19 14 5 20 2 20 -9 0 -14 -12 -20 -32
-17 -10 1 -10 -11 1 -28 5 -7 13 -11 19 -7 6 3 10 -12 9 -39 0 -32 6 -52 20
-68 15 -17 18 -30 13 -59 -4 -21 -4 -38 -1 -38 4 0 20 27 35 60 30 63 43 66
50 15 15 -102 160 -374 307 -572 118 -160 329 -404 329 -381 0 4 -6 13 -13 20
-18 18 -77 108 -77 116 0 4 -13 19 -30 34 -31 27 -41 54 -17 45 8 -3 14 1 14
9 0 8 -5 14 -11 14 -6 0 -3 7 7 14 13 10 15 15 5 19 -10 3 -11 8 -1 26 16 25
17 41 3 41 -5 0 -10 -8 -11 -17 0 -12 -2 -13 -6 -5 -3 7 0 19 7 27 8 10 8 19
1 34 -16 28 -15 49 1 33 17 -17 29 -15 22 3 -4 8 -1 21 5 29 6 7 9 21 5 30 -4
11 -1 16 10 16 9 0 16 7 16 15 0 12 4 14 18 6 13 -8 22 -4 39 17 11 15 25 23
29 19 5 -4 2 -12 -6 -17 -12 -7 -10 -11 10 -18 31 -12 35 -9 20 17 -13 25 -5
43 18 40 30 -3 35 1 21 17 -12 14 -11 16 6 12 13 -2 20 -11 20 -25 0 -12 4
-25 8 -29 4 -5 5 0 1 10 -6 17 -5 17 17 6 13 -7 27 -18 31 -24 4 -6 15 -3 30
9 l23 20 -18 -22 c-23 -26 -14 -51 9 -28 9 8 19 13 24 10 5 -3 11 1 14 7 3 9
11 6 26 -11 24 -28 21 -34 -20 -33 l-31 1 28 -22 c15 -12 34 -27 41 -34 7 -7
20 -13 28 -13 8 0 13 -4 10 -9 -9 -14 22 -81 37 -81 7 0 23 -9 34 -19 12 -11
24 -17 27 -14 3 4 6 1 6 -5 0 -6 13 -9 31 -7 26 4 32 0 41 -25 5 -17 16 -30
23 -30 8 0 20 -9 28 -20 10 -14 20 -18 32 -14 13 5 16 4 11 -4 -5 -8 -2 -10 8
-6 8 3 21 2 28 -2 7 -5 37 -9 66 -10 30 -1 59 -7 65 -13 6 -6 14 -11 19 -11 7
0 5 10 -8 48 -13 33 -11 50 5 47 9 -2 17 -4 19 -5 1 -2 5 -3 10 -4 4 -1 12 -4
17 -8 6 -3 11 5 11 19 2 32 13 41 25 23 8 -12 9 -10 5 6 -6 21 -4 22 49 26 23
2 24 3 7 22 -16 18 -16 19 1 13 12 -5 17 -1 17 12 0 11 -6 22 -12 24 -7 3 10
4 37 2 28 -2 44 -1 38 2 -7 2 -13 9 -13 15 0 14 129 5 237 -16 43 -9 153 -19
246 -24 92 -5 170 -12 174 -16 4 -4 1 -11 -7 -16 -13 -8 -13 -10 1 -10 9 0 19
3 23 7 4 4 27 15 52 24 33 13 42 14 34 4 -9 -10 -8 -13 4 -11 9 1 19 5 22 9 4
4 12 7 17 7 6 0 8 -3 4 -6 -3 -4 1 -13 10 -22 14 -14 19 -12 52 24 22 24 71
57 126 84 50 24 101 52 114 62 13 10 31 18 40 18 9 0 32 16 52 35 20 19 39 31
42 28 3 -3 17 4 31 15 14 10 22 22 19 26 -3 3 0 6 7 6 7 0 11 2 8 5 -3 3 -32
-8 -64 -25 -64 -33 -99 -38 -108 -15 -3 8 -12 12 -21 9 -8 -3 -15 -1 -15 5 0
6 4 11 10 11 5 0 17 12 26 26 15 22 15 27 3 36 -10 7 -8 8 8 3 25 -7 53 29 35
47 -7 7 -12 3 -16 -10 -4 -12 -19 -23 -37 -27 -29 -7 -30 -8 -14 -31 14 -21
14 -24 0 -24 -8 0 -14 3 -14 8 4 24 -3 24 -20 -1 -16 -24 -19 -26 -31 -12 -10
12 -10 15 4 15 9 0 16 5 16 10 0 6 -4 10 -10 10 -5 0 -10 7 -10 15 0 11 -7 14
-27 10 -16 -3 -22 -2 -15 1 23 11 13 41 -15 47 -38 7 -83 -11 -83 -34 0 -10 4
-19 9 -19 5 0 11 -7 14 -14 4 -10 1 -13 -7 -10 -9 4 -13 -3 -11 -20 3 -26 -8
-35 -20 -16 -3 5 -1 10 4 10 25 0 9 20 -16 21 -24 2 -25 2 -5 6 12 2 22 6 22
9 0 9 -61 64 -70 64 -14 0 -12 -18 2 -22 6 -2 8 -10 4 -16 -12 -19 -26 -14
-26 10 0 12 -3 18 -7 14 -4 -4 -8 -17 -8 -29 0 -15 -7 -23 -22 -25 -16 -2 -23
2 -23 13 0 9 -4 14 -9 11 -10 -7 -23 19 -14 28 4 3 13 0 21 -7 13 -10 14 -8 8
18 -6 24 -5 28 5 18 17 -17 32 -16 26 1 -3 8 -1 17 6 19 7 3 -1 4 -18 4 -22
-2 -29 2 -27 13 2 8 0 12 -4 8 -4 -4 -13 -3 -21 3 -10 9 -13 7 -13 -10 0 -11
5 -21 10 -21 6 0 10 -4 10 -10 0 -5 -8 -6 -17 -3 -12 5 -15 2 -10 -10 3 -8 1
-18 -6 -20 -8 -3 -6 -11 6 -25 18 -20 18 -20 -2 -15 -12 3 -21 11 -21 18 0 7
-16 12 -42 12 -27 1 -35 -1 -22 -5 11 -4 38 -22 60 -40 l39 -33 -47 21 c-44
19 -78 19 -78 -2 0 -5 -7 -3 -15 6 -20 19 -19 33 3 39 14 4 13 5 -4 6 -12 1
-26 13 -34 28 -8 16 -16 32 -19 37 -2 5 2 7 11 4 18 -7 46 8 35 19 -5 4 -12 1
-17 -7 -8 -12 -10 -11 -10 5 0 12 -5 26 -12 33 -9 9 -8 15 8 28 18 15 18 15
-8 9 -27 -5 -38 7 -18 20 6 3 10 12 10 18 0 8 -3 7 -9 -2 -7 -10 -15 -11 -37
-3 -16 6 -22 11 -13 11 9 1 23 8 30 17 12 15 11 16 -11 8 -14 -4 -35 -8 -47
-7 -13 0 -23 -3 -23 -7 0 -19 -42 -22 -54 -4 -13 16 -14 16 -32 -4 -10 -12
-24 -22 -31 -22 -7 0 -13 -4 -13 -10 0 -5 -11 -12 -25 -16 -14 -3 -25 -10 -25
-15 0 -19 -27 4 -42 37 -16 34 -15 35 5 28 18 -6 20 -5 10 8 -10 12 -6 19 27
39 44 27 48 34 23 43 -12 5 -13 10 -5 18 8 8 15 8 26 -1 11 -9 16 -9 21 0 4 6
1 15 -6 20 -11 7 -11 9 -1 9 8 0 12 6 9 13 -2 6 -11 11 -21 9 -26 -5 -18 5 13
16 25 9 29 8 24 -4 -3 -8 -1 -14 3 -14 5 0 17 21 28 46 18 44 20 46 57 42 29
-3 35 -1 27 9 -8 10 -6 13 6 13 9 0 19 0 23 1 4 0 9 -5 12 -12 2 -7 -1 -9 -8
-5 -7 5 -9 1 -5 -8 3 -9 11 -16 18 -17 6 0 20 -2 30 -4 12 -2 26 5 34 16 9 13
20 18 33 14 11 -4 19 -2 19 4 0 6 -4 11 -10 11 -5 0 -10 5 -10 10 0 15 36 12
50 -5 7 -8 9 -15 4 -15 -11 -1 27 -30 39 -30 4 0 1 7 -7 16 -9 8 -14 20 -11
25 4 5 1 9 -4 9 -24 0 -9 21 19 26 17 4 30 10 30 13 0 14 -23 29 -36 24 -16
-6 -18 2 -4 27 7 13 4 24 -11 44 l-21 27 36 31 c20 17 33 35 29 41 -3 5 2 16
12 23 17 12 16 14 -9 24 -15 5 -38 10 -52 10 -37 0 -33 39 6 46 38 8 59 62 22
56 -11 -1 -8 3 7 11 15 9 36 12 60 8 20 -4 75 -6 123 -6 49 0 88 -4 88 -9 0
-5 6 -4 13 2 8 7 35 4 87 -9 47 -12 76 -16 78 -9 8 22 61 10 90 -20 21 -20 32
-26 36 -17 5 9 7 9 12 -2 5 -10 13 -6 30 15 16 20 23 24 24 13 0 -13 11 -22
63 -47 5 -2 6 11 4 29 -3 19 -6 34 -7 34 -1 0 -3 10 -6 21 -2 16 3 23 19 28
17 4 19 8 9 18 -9 9 -15 8 -25 -6 -13 -18 -14 -18 -35 0 -12 10 -22 24 -22 31
0 7 -6 10 -12 8 -17 -6 -30 4 -47 38 -10 18 -18 24 -24 18 -7 -7 -6 -15 1 -24
9 -10 9 -14 -1 -15 -6 0 -32 -3 -56 -6 -38 -4 -49 -1 -85 27 -22 18 -45 38
-49 45 -4 6 -12 12 -18 12 -5 0 -39 18 -74 41 -66 41 -145 72 -168 64 -6 -2
-43 -6 -82 -9 -55 -4 -79 0 -114 15 -24 10 -47 17 -51 14 -5 -3 -31 8 -59 24
-28 17 -48 24 -45 16 3 -7 -3 -16 -15 -20 -24 -7 -44 2 -35 17 4 6 -1 8 -15 3
-16 -5 -27 -1 -37 12 -14 17 -14 15 -9 -14 6 -29 4 -33 -14 -33 -12 0 -21 6
-21 15 0 8 5 15 12 15 9 0 9 3 0 12 -8 8 -15 8 -27 -2 -13 -11 -18 -11 -28 0
-9 10 -9 11 1 6 7 -5 12 -1 12 9 0 9 -3 14 -8 11 -14 -8 -43 21 -36 38 3 9 10
14 15 11 4 -3 6 -11 4 -18 -3 -7 7 -17 21 -24 23 -11 27 -10 31 7 3 11 10 20
15 20 6 0 8 6 5 14 -3 7 3 20 14 29 10 9 19 13 19 8 0 -5 14 -7 31 -4 16 2 37
-1 45 -8 9 -8 14 -8 14 -1 0 21 -40 35 -58 20 -15 -11 -16 -11 -4 3 23 30 52
30 63 2 9 -25 10 -25 24 -7 8 11 14 14 15 7 0 -7 5 -13 11 -13 5 0 7 5 4 10
-3 6 3 22 14 36 12 15 21 23 21 18 0 -5 4 -2 10 6 6 9 5 17 -3 22 -14 9 1 39
23 46 7 3 10 0 6 -6 -7 -11 11 -28 20 -19 6 5 12 32 13 55 1 6 7 12 15 12 8 0
17 6 19 13 3 6 6 3 7 -8 1 -19 1 -19 11 -2 7 12 17 16 30 12 11 -4 19 -2 19 4
0 6 5 11 11 11 5 0 7 -6 4 -12 -4 -7 0 -5 8 5 8 9 19 17 26 17 6 0 11 4 11 8
0 5 14 7 30 4 22 -3 30 0 30 11 0 42 92 22 98 -21 2 -14 -1 -21 -9 -20 -8 2
-14 -10 -16 -30 -2 -23 1 -32 12 -32 8 0 15 -5 15 -11 0 -5 -5 -7 -11 -3 -7 4
-10 1 -7 -7 3 -8 11 -14 19 -14 18 0 24 42 9 61 -17 19 8 19 33 -1 18 -13 73
-13 122 2 17 5 88 72 121 114 11 14 27 79 20 79 -2 0 -13 -15 -24 -34 -18 -31
-62 -56 -62 -34 0 5 -5 6 -12 2 -8 -5 -9 2 -4 26 10 53 -14 80 -72 80 -69 -1
-118 -14 -153 -44 -26 -22 -40 -26 -76 -23 -24 2 -49 9 -55 15 -7 7 -18 12
-25 12 -7 0 -13 6 -13 14 0 8 -11 17 -25 20 -16 4 -22 11 -19 21 4 8 1 21 -5
29 -6 7 -12 32 -13 54 -1 23 -5 39 -10 36 -4 -3 -8 -2 -8 3 1 13 39 79 40 68
1 -10 30 51 33 70 1 5 9 15 17 21 10 9 14 33 15 83 0 56 3 71 15 71 13 0 13 1
0 10 -11 7 -12 12 -3 21 8 8 9 18 2 30 -7 14 -6 17 5 13 8 -3 17 -1 21 5 3 6
-2 14 -12 18 -24 9 -32 21 -25 45 3 14 7 16 13 7 9 -16 28 47 21 74 -6 22 -28
22 -37 0 -6 -17 -7 -17 -17 0 -11 21 -3 51 12 42 5 -3 10 -1 10 5 0 7 -7 10
-15 7 -17 -7 -30 9 -15 18 6 4 8 15 5 25 -4 13 1 23 14 32 29 18 26 31 -6 23
-21 -5 -24 -4 -16 7 6 7 13 28 17 47 5 27 2 37 -14 48 -11 8 -20 24 -20 35 0
11 -7 26 -15 32 -20 15 -28 106 -9 113 8 3 14 9 14 14 0 4 -6 6 -14 3 -11 -4
-14 2 -11 30 3 35 -8 49 -18 24 -3 -7 -6 -1 -6 15 -1 15 -6 27 -11 27 -7 0 -7
6 -1 19 6 10 7 21 4 25 -3 3 5 6 18 7 18 0 14 4 -16 13 -22 7 -34 14 -27 17
10 3 11 11 3 32 -6 16 -11 50 -11 77 0 57 -9 88 -20 70 -5 -8 -14 2 -25 28
-12 26 -23 38 -32 35 -7 -3 -13 0 -13 6 0 6 -6 8 -13 6 -7 -3 -20 7 -30 22
l-18 28 4 -32 c3 -32 3 -32 -15 -16 -18 16 -19 16 -25 -5 -7 -28 -14 -28 -44
4 -13 14 -33 30 -43 36 -16 8 -18 7 -13 -5 5 -13 2 -15 -16 -8 -12 5 -41 15
-64 22 -24 7 -43 16 -43 20 0 10 -57 29 -87 29 -14 0 -21 4 -18 10 4 6 -12 10
-39 10 -25 0 -46 5 -46 10 0 10 34 15 78 11 12 -1 22 3 22 9 0 5 -15 10 -32
11 -34 1 -93 16 -70 18 6 1 12 6 12 12 0 6 -8 8 -18 5 -10 -4 -27 1 -38 9 -12
9 -14 14 -6 15 7 0 11 4 8 9 -3 5 1 11 9 15 8 3 15 1 15 -4 0 -6 4 -10 10 -10
16 0 0 29 -18 32 -10 2 -26 -4 -36 -14 -25 -23 -32 -23 -32 2 0 15 5 18 18 14
10 -3 18 -1 18 5 0 9 56 27 73 23 4 -1 7 2 7 8 0 5 8 10 19 10 10 0 24 7 31
15 7 9 15 13 18 11 6 -7 57 51 71 80 32 70 43 111 31 119 -5 3 -11 -8 -15 -25
-4 -16 -11 -30 -16 -30 -6 0 -8 -4 -4 -9 6 -11 -25 -31 -47 -31 -7 0 -2 9 11
19 14 11 20 21 13 25 -6 3 -13 2 -17 -4 -9 -15 -42 -12 -48 4 -3 8 -1 17 6 19
9 3 9 8 0 17 -7 8 -8 22 -3 41 7 24 5 32 -11 42 -25 16 -24 21 6 35 24 11 25
10 15 -7 -13 -25 -13 -31 0 -31 6 0 13 8 17 18 3 9 13 26 22 36 15 18 15 19
-3 12 -16 -5 -17 -4 -6 9 9 11 15 13 20 4 6 -8 13 -8 29 1 27 14 97 9 94 -7
-2 -8 7 -9 32 -2 37 11 160 -5 182 -22 25 -22 232 40 292 87 24 19 47 34 50
34 3 0 12 13 19 29 7 16 23 40 36 54 13 14 29 41 35 60 9 27 17 35 36 35 14 0
25 -2 25 -5 0 -11 -56 -113 -80 -143 -41 -54 -46 -68 -12 -37 16 16 33 28 37
27 4 -1 10 2 13 6 4 4 1 4 -5 0 -22 -13 -14 11 10 28 13 10 24 27 24 39 2 20
38 56 56 57 16 0 19 -32 3 -49 -20 -22 -21 -38 -1 -21 8 6 19 9 26 5 7 -5 9
-1 5 12 -10 30 48 100 92 113 48 13 59 13 44 -2 -9 -9 -7 -14 6 -25 16 -12 16
-14 -2 -28 -25 -19 -12 -20 17 0 23 15 67 17 67 3 0 -4 16 -8 36 -8 29 0 35
-3 30 -16 -5 -13 -2 -15 13 -11 11 3 28 -3 41 -15 11 -11 34 -20 50 -20 17 -1
30 -4 30 -8 0 -4 20 -18 45 -31 25 -13 45 -27 45 -31 0 -5 5 -8 11 -8 7 0 31
-20 55 -43 31 -31 42 -50 39 -65 -5 -27 3 -28 22 -4 14 16 14 16 9 0 -3 -12 0
-18 9 -18 8 0 15 -7 15 -15 0 -8 6 -15 14 -15 20 0 48 -29 40 -42 -5 -7 0 -9
14 -6 15 4 22 2 22 -7 0 -8 9 -16 19 -20 11 -3 23 -15 26 -26 4 -10 15 -19 26
-19 11 0 31 -12 45 -27 19 -21 27 -24 33 -14 6 9 10 6 15 -11 4 -16 8 -19 14
-11 6 10 12 10 27 -1 11 -8 25 -12 31 -9 15 6 96 -76 88 -89 -3 -5 -1 -15 6
-23 6 -8 10 -22 9 -32 -2 -10 1 -28 5 -40 4 -13 4 -28 0 -35 -12 -20 -13 -52
-1 -67 6 -7 13 -25 15 -39 2 -15 6 -29 10 -32 16 -12 12 -48 -5 -55 -15 -5
-12 -9 16 -21 26 -11 32 -19 28 -34 -3 -11 -1 -22 4 -25 4 -3 6 -12 2 -20 -3
-8 -1 -15 5 -15 9 0 15 -23 28 -100 3 -14 7 -37 10 -52 5 -24 3 -27 -12 -21
-12 4 -15 3 -10 -6 12 -19 15 -91 4 -91 -6 0 -8 -9 -5 -21 5 -19 4 -19 -21 4
-15 14 -44 40 -64 57 -21 17 -42 46 -49 63 -6 18 -23 41 -37 51 -21 16 -24 17
-19 3 8 -21 -15 -13 -67 25 -22 15 -48 28 -59 28 -10 0 -15 4 -12 10 7 11 -29
21 -88 25 -23 1 -51 5 -62 9 -15 5 -14 3 3 -5 41 -22 23 -28 -28 -9 -43 16
-59 17 -125 7 -56 -7 -81 -7 -98 2 -12 6 -43 10 -69 7 -26 -2 -45 0 -42 5 2 4
-6 6 -18 3 -13 -3 -30 -6 -38 -6 -8 -1 -27 -9 -42 -20 -20 -14 -28 -15 -32 -6
-4 9 -9 8 -18 -6 -7 -10 -21 -28 -31 -40 l-18 -21 10 22 c6 12 11 37 10 55 0
18 -3 27 -6 19 -3 -7 -24 -30 -46 -50 -65 -58 -78 -74 -67 -81 11 -7 4 -35
-13 -58 -8 -10 -12 -10 -18 0 -11 18 -19 6 -24 -37 -4 -29 -2 -36 9 -32 8 3
17 -1 20 -9 8 -22 7 -26 -3 -20 -5 4 -7 -3 -4 -14 3 -11 0 -20 -6 -20 -6 0
-11 -6 -11 -13 0 -7 -8 -28 -19 -47 -10 -19 -17 -47 -17 -62 1 -16 -2 -28 -6
-28 -4 0 -5 -13 -1 -30 3 -19 1 -30 -6 -30 -6 0 -16 -12 -21 -26 -6 -14 -15
-22 -21 -18 -8 4 -10 -11 -7 -52 5 -73 9 -86 30 -102 9 -7 27 -30 39 -52 12
-21 26 -37 31 -34 4 3 8 -2 8 -11 0 -18 43 -65 61 -65 8 0 8 4 -1 15 -9 11 -9
15 -1 15 9 0 9 5 1 20 -8 16 -8 20 4 20 8 0 16 -5 18 -12 7 -19 30 3 25 23 -4
16 2 14 31 -11 77 -65 84 -70 93 -70 5 0 9 -7 9 -15 0 -8 7 -15 15 -15 8 0 15
7 15 16 0 13 6 15 33 10 17 -4 81 -9 141 -12 60 -2 113 -7 119 -11 8 -5 40
-10 95 -15 6 -1 12 -7 12 -15 0 -18 17 -16 24 3 9 23 8 26 -6 18 -9 -5 -8 -2
1 9 10 13 17 14 26 7 9 -8 23 -5 49 9 23 14 38 17 42 10 4 -6 9 -7 13 -2 3 5
17 14 31 20 18 9 20 12 8 12 -20 1 -22 9 -10 29 8 11 49 20 106 21 11 1 16 4
13 8 -4 3 1 12 11 19 9 7 12 14 6 14 -13 0 -6 50 7 50 5 0 7 11 3 24 -4 18 1
27 28 45 18 12 26 21 18 20 -31 -3 -40 2 -40 21 0 11 4 20 10 20 5 0 7 -7 4
-15 -5 -13 -2 -14 21 -5 38 15 106 13 102 -2 -1 -7 -6 -16 -12 -20 -6 -5 -6
-8 2 -8 6 0 15 5 18 10 3 6 23 11 43 11 30 2 32 3 10 6 -20 3 -28 10 -28 25 0
15 5 19 18 14 15 -5 16 -4 1 6 -16 11 -15 14 3 39 19 25 19 28 3 58 -9 18 -23
35 -30 38 -8 3 -13 8 -10 13 2 4 -2 15 -9 26 -26 34 -6 44 25 12 29 -31 33
-52 4 -28 -8 7 -15 10 -15 6 0 -9 61 -66 71 -66 9 0 25 -67 21 -88 -2 -7 3
-11 10 -10 9 2 14 -11 16 -37 2 -22 7 -44 11 -50 8 -11 8 -17 -4 -145 -9 -90
-12 -117 -20 -165 -7 -36 -11 -70 -20 -155 -8 -82 -34 -185 -80 -323 -20 -60
-34 -111 -32 -114 8 -7 24 27 32 67 8 38 22 60 37 60 10 0 6 -113 -7 -165 -6
-26 -4 -25 14 10 12 21 21 46 21 55 0 8 9 37 19 65 16 43 20 46 23 25 3 -20 7
-15 22 31 12 36 26 59 40 65 15 6 22 20 24 48 3 29 6 36 13 25 8 -12 10 -12
19 1 5 8 10 25 10 37 0 14 23 43 64 80 35 32 73 77 85 100 11 23 25 44 31 48
5 3 10 15 10 25 0 10 10 27 23 37 29 25 45 53 41 78 -3 18 11 34 29 35 4 0 7
-7 7 -16 0 -8 5 -12 10 -9 7 4 6 13 -1 26 -6 11 -8 27 -5 34 3 8 1 17 -4 20
-6 4 -10 10 -10 14 0 13 57 6 75 -9 10 -8 15 -9 15 -1 0 6 9 20 21 32 22 22
26 53 12 114 -7 29 -6 47 4 65 7 14 13 19 13 13 0 -7 6 -13 14 -13 17 0 29 27
16 35 -14 9 -12 69 2 83 9 9 9 12 0 12 -7 0 -12 5 -12 10 0 6 7 10 16 10 13 0
15 7 10 31 -5 25 -3 30 9 25 12 -4 15 4 15 39 0 27 5 45 11 45 6 0 9 8 7 18
-3 10 1 56 9 103 14 87 18 318 8 426 -5 47 -2 70 11 94 21 41 31 170 15 195
-9 16 -10 14 -4 -11 6 -28 6 -29 -11 -12 -10 9 -16 23 -13 30 2 6 -1 19 -8 27
-7 8 -17 29 -22 45 -6 17 -16 29 -22 27 -6 -1 -11 2 -11 6 0 5 -25 37 -56 73
-72 83 -144 206 -99 169 9 -7 18 -10 21 -8 3 3 -11 16 -30 28 -20 12 -36 26
-36 32 0 6 -17 26 -37 44 -20 19 -32 34 -26 34 20 0 86 -42 137 -87 26 -24 52
-41 57 -38 4 3 13 -4 19 -15 6 -11 8 -20 5 -20 -4 0 9 -19 27 -42 18 -24 44
-64 58 -90 13 -27 28 -48 33 -48 4 0 5 -4 2 -10 -3 -5 -2 -10 4 -10 5 0 11
-17 13 -37 2 -21 8 -38 15 -38 6 0 15 -3 19 -7 4 -5 2 -8 -5 -8 -8 0 -10 -7
-6 -20 3 -11 8 -40 10 -66 6 -74 15 -64 15 18 0 82 -7 111 -53 208 -46 95 -82
149 -118 175 -38 29 -61 60 -51 70 4 5 1 5 -6 1 -15 -9 -95 51 -86 66 3 5 0 8
-7 7 -13 -3 -78 27 -89 40 -3 3 -14 11 -24 17 -19 10 -31 44 -16 44 4 0 6 10
3 21 -5 19 -3 21 20 15 l26 -6 -24 26 c-13 14 -27 35 -30 45 -4 11 -13 19 -21
19 -18 0 -18 0 3 41 24 49 21 151 -6 212 -12 26 -24 47 -26 47 -7 0 2 -49 12
-62 26 -33 24 -175 -2 -175 -10 0 -11 5 -5 17 9 18 2 139 -10 155 -14 19 -22
75 -10 75 20 0 -9 38 -108 140 -54 55 -106 100 -115 100 -9 0 -20 6 -24 13 -4
8 -38 28 -75 46 -37 18 -70 37 -73 42 -4 5 -14 5 -26 -2 -17 -9 -26 -5 -59 25
-21 19 -51 42 -67 52 -15 10 -38 27 -50 38 -13 11 -23 14 -23 8 0 -6 5 -14 10
-17 6 -3 10 -12 10 -18 0 -7 -16 6 -35 28 -19 22 -33 45 -30 52 4 13 -75 82
-124 107 -18 10 -52 24 -75 32 l-41 14 25 -20 c14 -11 30 -20 37 -20 7 0 22
-13 35 -30 12 -16 30 -30 40 -30 10 0 18 -4 18 -10 0 -5 13 -16 29 -24 16 -9
31 -22 34 -29 3 -9 -22 1 -58 22 -36 20 -65 42 -65 49 0 6 -4 12 -10 12 -5 0
-35 16 -67 37 -48 30 -54 37 -38 43 15 5 6 10 -35 20 -30 7 -58 17 -62 23 -9
15 -68 16 -103 2 -16 -7 -41 -9 -55 -6 -13 4 -47 4 -75 0 -63 -8 -195 1 -195
13 0 5 -6 8 -12 5 -7 -2 -31 2 -53 10 -55 19 -253 24 -259 6 -7 -17 -38 -17
-55 0 -11 10 -13 10 -7 0 5 -9 0 -13 -15 -13 -13 0 -37 16 -58 39 -20 21 -48
41 -63 44 -15 4 -35 22 -48 42 -26 42 -33 44 -24 8 l7 -28 -29 28 c-16 16 -30
24 -32 17 -2 -6 -17 -1 -38 15 -19 14 -35 22 -35 18z m1138 -209 c-3 -3 -12
-4 -19 -1 -8 3 -5 6 6 6 11 1 17 -2 13 -5z m3 -24 c0 -13 -20 -13 -40 0 -12 8
-9 10 13 10 15 0 27 -4 27 -10z m670 -450 c0 -11 -2 -20 -4 -20 -2 0 -6 9 -9
20 -3 11 -1 20 4 20 5 0 9 -9 9 -20z m160 -118 l19 -37 -5 35 -6 35 32 -35
c44 -50 50 -58 50 -70 0 -6 7 -21 15 -34 15 -22 15 -71 0 -126 -3 -14 -7 -33
-8 -43 -1 -9 -5 -17 -9 -17 -5 0 -15 0 -23 0 -11 0 -14 7 -9 25 4 18 1 32 -11
45 -11 13 -15 28 -11 44 3 13 3 46 -1 72 -5 42 -7 45 -15 24 l-9 -24 -14 28
c-8 16 -15 35 -15 42 0 8 -4 14 -9 14 -5 0 -12 18 -16 40 -4 22 -11 42 -16 46
-5 3 -9 10 -9 16 0 16 47 -38 70 -80z m175 -123 c10 -30 0 -33 -13 -4 -6 14
-7 25 -2 25 5 0 12 -9 15 -21z m-25 -79 c0 -5 -4 -10 -10 -10 -5 0 -10 5 -10
10 0 6 5 10 10 10 6 0 10 -4 10 -10z m90 -230 c0 -5 -4 -10 -10 -10 -5 0 -10
5 -10 10 0 6 5 10 10 10 6 0 10 -4 10 -10z m20 -66 c0 -16 -9 -18 -29 -5 -7 5
-11 14 -7 19 9 15 36 4 36 -14z m-35 -14 c3 -5 -1 -10 -9 -10 -9 0 -16 5 -16
10 0 6 4 10 9 10 6 0 13 -4 16 -10z m-1450 -80 c-3 -5 -11 -10 -16 -10 -6 0
-7 5 -4 10 3 6 11 10 16 10 6 0 7 -4 4 -10z m-63 -47 c-19 -40 -25 -41 -40 -8
-10 21 -9 25 4 25 8 0 12 4 9 10 -3 6 4 9 18 8 24 -2 24 -3 9 -35z m1528 12
c17 -18 19 -25 9 -25 -21 0 -60 30 -54 41 10 14 20 11 45 -16z m85 5 c8 -13
-5 -13 -25 0 -13 8 -13 10 2 10 9 0 20 -4 23 -10z m-1826 -100 c-30 -53 -34
-46 -6 11 12 25 23 42 25 37 2 -4 -7 -26 -19 -48z m1807 -27 c-4 -4 -11 -1
-16 7 -16 25 -11 35 7 17 9 -9 13 -20 9 -24z m50 -5 c12 -22 12 -29 3 -26 -7
2 -19 19 -26 37 -17 40 1 32 23 -11z m39 -74 c9 -14 14 -29 10 -32 -6 -7 -44
36 -45 51 0 16 19 6 35 -19z m193 -4 c7 -11 8 -20 2 -20 -5 0 -14 9 -20 20 -6
11 -7 20 -3 20 5 0 14 -9 21 -20z m41 -75 c0 -5 -6 -1 -14 9 -8 11 -15 24 -15
30 0 5 7 1 15 -10 8 -10 14 -23 14 -29z m-159 -40 c0 -5 -5 -3 -10 5 -5 8 -10
20 -10 25 0 6 5 3 10 -5 5 -8 10 -19 10 -25z m107 -113 c24 -51 41 -97 38
-103 -4 -5 -1 -17 6 -25 10 -12 9 -18 -4 -31 -9 -9 -19 -15 -21 -12 -3 3 -13
34 -22 70 -9 35 -21 70 -26 76 -21 26 -65 128 -60 141 8 25 43 -20 89 -116z
m-2864 51 c-8 -3 -13 -22 -13 -48 0 -28 -5 -45 -15 -48 -12 -5 -12 -2 -3 19
13 27 2 47 -12 24 -7 -11 -10 -12 -10 -2 0 7 -5 10 -10 7 -6 -4 -7 -12 -4 -18
4 -7 1 -6 -7 2 -11 10 -11 15 -1 18 6 3 12 11 12 18 0 8 9 19 20 25 15 8 19
17 14 32 -6 20 -5 20 17 -2 16 -15 20 -24 12 -27z m-26 -142 c0 -11 -5 -18 -9
-15 -4 3 -5 11 -1 19 7 21 12 19 10 -4z m113 -11 c-6 -11 -15 -20 -20 -20 -6
0 -5 9 2 20 7 11 16 20 21 20 4 0 3 -9 -3 -20z m-45 -50 c-8 -12 -37 -9 -47 5
-13 17 -9 28 6 16 11 -9 12 -6 8 16 l-5 28 22 -27 c12 -15 19 -32 16 -38z
m-25 -21 c0 -4 -12 -12 -27 -18 -31 -13 -84 -11 -76 2 3 5 11 6 19 3 16 -6 46
3 40 13 -2 3 7 6 20 6 13 0 24 -3 24 -6z m2891 -30 c-8 -22 -10 -22 -16 -5 -5
11 -3 21 6 26 19 12 21 7 10 -21z m-3028 -119 c3 -11 1 -20 -4 -20 -5 0 -9 9
-9 20 0 11 2 20 4 20 2 0 6 -9 9 -20z m520 -243 c3 -8 1 -20 -4 -28 -6 -10 -9
-7 -9 14 0 29 5 35 13 14z m-588 -85 c-3 -3 -11 0 -18 7 -9 10 -8 11 6 5 10
-3 15 -9 12 -12z m67 3 c1 -11 66 -40 111 -49 25 -6 26 -8 12 -22 -8 -8 -20
-12 -25 -9 -6 4 -17 2 -25 -5 -10 -8 -19 -8 -34 -1 -11 6 -36 11 -55 11 -23 0
-36 5 -36 13 0 8 -12 19 -26 26 -42 19 -23 22 37 7 58 -15 79 -13 36 3 -18 7
-25 15 -21 26 7 17 25 16 26 0z m-2072 -64 c0 -5 -7 -12 -16 -15 -14 -5 -15
-4 -4 9 14 17 20 19 20 6z m2010 5 c0 -3 -4 -8 -10 -11 -5 -3 -10 -1 -10 4 0
6 5 11 10 11 6 0 10 -2 10 -4z m2360 -252 c0 -9 -37 12 -52 31 -33 39 -18 49
17 11 19 -21 35 -40 35 -42z m-2078 3 c15 -16 24 -35 20 -41 -3 -6 -5 -21 -4
-32 4 -27 -39 -44 -110 -44 l-50 0 32 40 c27 34 32 49 32 91 l-1 51 27 -17
c15 -9 39 -31 54 -48z m1514 54 c-3 -5 16 -7 42 -4 l47 4 -27 -16 c-37 -21
-35 -26 5 -19 30 5 31 4 13 -10 -17 -14 -16 -15 20 -9 37 6 38 6 21 -11 -12
-13 -25 -16 -43 -12 -16 4 -23 3 -20 -3 9 -14 -107 -1 -116 13 -4 6 -8 7 -8 2
0 -5 -7 -3 -15 4 -8 7 -21 10 -28 7 -8 -3 -13 3 -13 14 0 15 8 19 31 19 17 0
40 7 51 15 21 16 48 20 40 6z m-1735 -44 c-1 -12 -15 -9 -19 4 -3 6 1 10 8 8
6 -3 11 -8 11 -12z m1942 6 c-7 -2 -19 -2 -25 0 -7 3 -2 5 12 5 14 0 19 -2 13
-5z m383 -50 c-6 -13 -9 -14 -19 -3 -9 10 -9 13 1 17 6 3 13 12 13 21 1 14 2
14 6 -1 3 -10 2 -25 -1 -34z m-271 -53 c3 -5 1 -10 -4 -10 -6 0 -11 5 -11 10
0 6 2 10 4 10 3 0 8 -4 11 -10z m-681 -84 c-3 -7 2 -31 11 -51 8 -21 14 -39
13 -40 -2 -2 -27 7 -57 18 -42 16 -50 23 -39 31 8 6 20 21 27 34 13 24 54 32
45 8z m-3198 -50 c2 -55 -20 -149 -35 -154 -11 -4 -12 8 -6 59 4 35 11 69 15
74 4 6 6 23 4 38 -2 18 1 27 9 24 7 -2 12 -20 13 -41z m3364 34 c0 -5 -4 -10
-10 -10 -5 0 -10 5 -10 10 0 6 5 10 10 10 6 0 10 -4 10 -10z m170 -11 c0 -6
-4 -7 -10 -4 -5 3 -10 11 -10 16 0 6 5 7 10 4 6 -3 10 -11 10 -16z m40 -9 c7
-13 7 -20 1 -20 -6 0 -15 9 -21 20 -7 13 -7 20 -1 20 6 0 15 -9 21 -20z m453
6 c4 -10 1 -13 -9 -9 -7 3 -14 9 -14 14 0 14 17 10 23 -5z m-1115 -55 c1 -16
-2 -32 -8 -36 -12 -7 -24 39 -16 61 9 23 21 10 24 -25z m1195 32 c-7 -2 -19
-2 -25 0 -7 3 -2 5 12 5 14 0 19 -2 13 -5z m-2276 -39 c-3 -3 -12 -4 -19 -1
-8 3 -5 6 6 6 11 1 17 -2 13 -5z m1729 -18 c12 -30 -15 -56 -56 -56 -46 0 -50
13 -17 45 25 26 65 32 73 11z m-3686 0 c0 -3 -4 -8 -10 -11 -5 -3 -10 -1 -10
4 0 6 5 11 10 11 6 0 10 -2 10 -4z m294 -68 c-3 -13 -13 -35 -20 -50 -8 -15
-14 -47 -14 -71 0 -24 -7 -52 -15 -63 -8 -10 -15 -26 -15 -35 0 -17 -26 -33
-39 -24 -26 16 44 245 75 245 8 0 14 5 14 10 0 6 5 10 11 10 6 0 8 -9 3 -22z
m1546 -63 c-7 -8 -16 -15 -21 -15 -5 0 -6 7 -3 15 4 8 13 15 21 15 13 0 13 -3
3 -15z m-70 -9 c0 -3 -4 -8 -10 -11 -5 -3 -10 -1 -10 4 0 6 5 11 10 11 6 0 10
-2 10 -4z m140 -11 c-7 -9 -19 -14 -27 -11 -7 3 -13 1 -13 -4 0 -5 -7 -7 -16
-3 -15 6 -15 8 2 20 10 7 29 13 42 13 21 0 23 -2 12 -15z m-90 -15 c0 -5 -8
-10 -17 -10 -15 0 -16 2 -3 10 19 12 20 12 20 0z m-60 -16 c0 -8 -4 -12 -10
-9 -5 3 -10 10 -10 16 0 5 5 9 10 9 6 0 10 -7 10 -16z m-145 -4 c-3 -5 -13
-10 -21 -10 -8 0 -12 -5 -9 -10 4 -6 1 -9 -6 -8 -7 2 -14 -6 -16 -17 -3 -16
-2 -17 6 -5 8 12 13 12 23 2 17 -17 31 -15 24 3 -3 10 1 15 14 15 10 0 22 5
25 10 3 6 14 10 23 9 12 0 13 -2 3 -6 -9 -4 -10 -8 -3 -12 6 -4 9 -17 5 -30
-4 -18 -11 -21 -29 -17 -12 3 -26 1 -29 -5 -10 -15 -1 -20 39 -26 31 -4 36 -2
36 15 0 12 7 28 16 36 17 18 39 22 29 6 -3 -5 1 -10 9 -10 9 0 16 -4 16 -10 0
-5 -4 -10 -10 -10 -17 0 -11 -25 10 -37 12 -8 21 -9 25 -3 3 6 -1 10 -10 10
-9 0 -15 5 -13 11 2 6 7 10 11 9 4 0 15 6 24 15 8 9 22 14 30 11 8 -3 19 -6
24 -6 14 0 11 -28 -3 -33 -7 -2 -10 -8 -6 -12 4 -4 14 -3 21 4 8 6 23 9 33 5
15 -5 16 -4 5 4 -12 9 -12 12 0 24 23 22 66 41 81 35 14 -5 12 -6 -34 -21 -23
-7 -24 -28 -2 -24 10 2 19 -3 22 -11 3 -10 0 -12 -11 -8 -11 4 -14 2 -11 -7 4
-11 11 -11 30 -2 13 6 22 17 19 24 -3 8 -2 24 1 37 5 20 10 23 38 18 22 -3 38
0 49 11 8 9 20 16 25 16 6 0 13 6 16 13 5 10 7 10 12 0 6 -15 61 -18 66 -4 2
5 10 2 18 -7 13 -14 12 -15 -2 -10 -9 4 -19 4 -23 0 -3 -4 -13 -7 -22 -7 -9 0
-21 -8 -27 -18 -9 -15 -7 -21 7 -32 22 -16 47 -9 47 12 0 9 6 13 14 10 7 -3
19 0 26 6 10 10 10 7 1 -10 -6 -13 -9 -23 -6 -23 4 0 3 -6 -1 -12 -6 -9 -10
-5 -15 12 -7 24 -7 24 -8 3 -1 -13 -4 -23 -8 -23 -10 0 -34 -52 -28 -58 3 -3
5 0 5 7 0 7 5 9 11 6 7 -5 5 -15 -5 -30 -14 -21 -14 -23 4 -18 11 3 20 0 20
-6 0 -6 -7 -11 -15 -11 -18 0 -19 -29 -1 -52 10 -13 15 -15 24 -6 16 16 15 28
-3 28 -22 0 -18 13 12 34 22 17 26 17 20 3 -3 -9 -2 -19 3 -22 6 -4 10 2 10
12 0 15 2 16 10 3 8 -11 12 -12 18 -3 9 14 26 5 35 -21 5 -13 3 -17 -7 -13
-11 4 -13 1 -9 -11 6 -15 5 -15 -11 -3 -16 13 -17 12 -11 -12 9 -35 -1 -50
-25 -37 -13 7 -21 7 -25 0 -3 -5 -2 -10 3 -10 6 0 13 -7 16 -16 7 -19 -12 -47
-25 -38 -5 3 -9 -1 -9 -9 0 -8 -7 -18 -16 -21 -8 -3 -13 -10 -10 -15 4 -5 -4
-18 -17 -28 -24 -19 -42 -63 -26 -63 5 0 9 -5 9 -11 0 -5 -4 -8 -8 -5 -5 3 -8
-12 -7 -32 1 -27 -5 -43 -22 -58 -27 -25 -29 -37 -7 -55 9 -7 14 -22 11 -36
-3 -15 1 -23 9 -23 8 0 14 -4 14 -10 0 -5 -7 -10 -15 -10 -8 0 -15 -8 -15 -17
0 -9 3 -13 7 -10 3 4 12 -5 20 -19 17 -34 17 -36 -4 -33 -31 3 -36 -1 -22 -17
11 -14 10 -15 -9 -12 -11 1 -21 -1 -21 -6 1 -9 -21 -26 -33 -26 -4 0 -5 6 -2
14 3 8 1 17 -5 21 -6 3 -11 0 -11 -9 0 -8 -3 -22 -7 -32 -4 -11 -3 -15 5 -10
6 3 13 2 17 -4 3 -5 -1 -10 -10 -10 -8 0 -20 10 -25 23 -5 12 -9 16 -9 8 -1
-11 -5 -11 -19 2 -17 16 -20 15 -41 -4 -17 -16 -26 -18 -34 -10 -8 8 -8 11 2
11 13 0 41 24 41 36 0 3 -13 4 -30 1 -21 -5 -32 -2 -38 10 -6 9 -16 14 -25 10
-9 -3 -18 -1 -21 6 -4 7 -4 2 -2 -10 3 -19 1 -22 -18 -17 -18 4 -35 -6 -77
-44 -30 -27 -67 -61 -82 -75 -16 -14 -28 -28 -27 -32 1 -3 -1 -16 -4 -28 -5
-18 -8 -19 -16 -7 -7 12 -9 11 -9 -5 -1 -70 -3 -84 -13 -82 -6 1 -13 -4 -15
-10 -3 -7 0 -13 6 -13 6 0 11 -4 11 -10 0 -5 -5 -9 -11 -7 -6 1 -15 -8 -19
-20 -7 -17 -6 -21 6 -16 10 4 14 -2 14 -20 0 -15 9 -32 21 -41 17 -11 22 -27
24 -70 1 -30 -2 -53 -6 -50 -8 5 -13 -38 -10 -76 2 -20 -51 -80 -70 -80 -7 0
0 12 17 28 26 24 28 30 18 50 -19 39 -32 48 -46 33 -11 -10 -10 -12 1 -9 7 2
16 -3 18 -10 4 -10 -3 -12 -31 -7 -24 5 -36 3 -36 -4 0 -6 -5 -11 -12 -11 -6
0 -4 7 5 18 10 10 17 25 16 33 0 10 -2 11 -6 1 -2 -6 -9 -9 -14 -6 -6 3 -6 10
-1 17 5 7 12 20 15 30 6 15 3 17 -16 12 -18 -6 -20 -5 -9 6 17 18 15 32 -3 25
-8 -3 -15 -1 -15 4 0 6 6 10 13 10 8 1 7 5 -4 13 -17 13 -15 37 4 37 5 0 7 -3
4 -7 -4 -3 2 -13 14 -21 28 -20 35 -8 9 18 -11 11 -18 25 -15 30 4 6 0 10 -9
10 -8 0 -17 6 -19 13 -3 6 -6 -2 -6 -20 -1 -25 -5 -31 -16 -27 -10 4 -14 14
-10 28 4 13 3 16 -2 9 -5 -7 -14 -9 -22 -4 -9 6 -5 12 17 22 26 11 28 14 15
28 -14 13 -17 13 -29 -4 -13 -17 -14 -16 -14 18 0 36 15 75 34 88 5 4 -1 12
-12 18 -18 9 -21 9 -16 -3 3 -8 1 -17 -4 -20 -14 -8 -62 11 -62 25 0 6 7 9 15
5 9 -3 15 0 15 9 0 8 -6 15 -12 15 -8 0 -9 3 -3 8 13 9 16 62 4 62 -5 0 -9 -4
-9 -10 0 -5 -5 -10 -11 -10 -6 0 -8 7 -5 16 4 10 -2 24 -16 36 l-23 20 23 -6
c18 -6 22 -3 22 12 0 11 4 22 10 24 6 2 4 15 -5 32 -8 15 -12 32 -9 37 3 5 3
9 0 9 -2 0 -11 2 -18 5 -9 4 -14 -2 -15 -15 -1 -11 2 -20 8 -20 13 0 11 -27
-2 -36 -13 -8 -36 13 -25 23 4 4 11 1 16 -7 6 -9 10 -10 10 -3 0 6 -9 18 -21
26 -13 10 -16 16 -8 19 8 3 7 9 -5 20 -10 10 -12 19 -6 23 5 3 10 1 10 -6 0
-8 3 -9 13 0 8 6 17 7 22 3 4 -4 4 4 0 18 -10 33 -45 56 -45 29 0 -5 -5 -7
-10 -4 -6 4 -1 14 12 25 13 11 18 19 12 20 -23 0 -24 31 -1 54 12 13 28 33 35
46 l14 23 -30 -22 c-17 -12 -34 -31 -37 -42 -7 -20 -8 -20 -26 -3 -20 18 -20
18 6 31 25 14 26 33 1 33 -8 0 -20 7 -27 17 -13 15 -12 15 8 5 16 -9 24 -9 29
-1 3 6 15 9 25 6 20 -5 26 7 9 18 -6 4 -18 1 -27 -7 -14 -11 -15 -10 -8 12 4
14 12 27 16 28 13 5 11 32 -3 32 -6 0 -3 6 7 14 18 13 18 15 2 40 l-17 26 32
-7 c19 -3 30 -2 25 3 -14 15 -86 12 -80 -3 3 -7 0 -13 -6 -13 -16 0 -14 30 3
36 8 3 17 16 20 29 4 17 12 23 31 21 26 -1 32 -15 15 -32 -6 -6 -3 -10 11 -10
16 0 19 5 14 21 -3 11 -8 28 -10 38 -2 9 -7 22 -11 29 -4 7 -3 8 4 4 8 -5 12
0 12 13 0 10 -6 22 -12 24 -8 4 -5 8 8 12 13 4 20 14 19 28 -2 21 -25 38 -25
18 0 -16 -17 -13 -24 4 -3 8 -2 14 2 14 19 -3 22 3 11 24 -6 12 -8 19 -4 15 5
-4 15 -3 22 4 11 9 16 9 22 -1 5 -7 7 9 5 35 -3 34 -1 44 6 34 5 -8 10 -10 10
-5 0 6 4 3 10 -5 7 -12 13 -10 34 13 14 15 31 27 38 27 9 0 9 -3 -2 -11 -12
-9 -10 -10 8 -6 18 4 22 2 18 -10 -4 -9 -1 -13 6 -11 7 3 13 11 13 19 0 10 13
14 43 15 23 0 48 6 54 12 15 15 52 16 43 2z m1185 6 c0 -2 -7 -7 -16 -10 -8
-3 -12 -2 -9 4 6 10 25 14 25 6z m-998 -13 c-6 -2 -10 -8 -8 -12 3 -4 -1 -8
-8 -8 -8 0 -12 6 -9 14 3 7 13 13 22 12 10 0 11 -2 3 -6z m48 -18 c-7 -8 -20
-15 -29 -15 -11 1 -8 5 9 15 32 18 35 18 20 0z m50 -35 c0 -5 -2 -10 -4 -10
-3 0 -8 5 -11 10 -3 6 -1 10 4 10 6 0 11 -4 11 -10z m-1420 -122 c0 -10 -5
-18 -10 -18 -15 0 -23 27 -16 47 6 15 8 15 16 3 6 -8 10 -23 10 -32z m770 38
c0 -2 -7 -7 -16 -10 -8 -3 -12 -2 -9 4 6 10 25 14 25 6z m36 -44 c7 -5 7 -13
-1 -27 -14 -26 -40 -33 -27 -8 5 10 7 24 5 31 -5 13 6 16 23 4z m-46 -52 c0
-5 -5 -10 -11 -10 -5 0 -7 5 -4 10 3 6 8 10 11 10 2 0 4 -4 4 -10z m40 -51 c0
-14 -16 -11 -29 5 -10 12 -8 13 8 9 12 -3 21 -9 21 -14z m-43 -125 c-3 -3 -12
-4 -19 -1 -8 3 -5 6 6 6 11 1 17 -2 13 -5z m-814 -19 c-3 -9 -8 -14 -10 -11
-3 3 -2 9 2 15 9 16 15 13 8 -4z m774 -7 c-3 -8 -6 -5 -6 6 -1 11 2 17 5 13 3
-3 4 -12 1 -19z m1241 -56 c2 -7 -1 -12 -8 -12 -6 0 -9 4 -6 9 4 5 1 12 -4 14
-6 3 -5 4 2 3 6 -1 14 -8 16 -14z m44 -24 c-9 -9 -15 -9 -24 1 -11 11 -10 13
5 8 10 -4 17 -2 17 5 0 6 3 8 7 5 4 -4 1 -13 -5 -19z m-1994 -24 c3 -37 -13
-68 -29 -58 -5 3 -14 -6 -20 -20 -8 -16 -17 -22 -27 -19 -11 5 -13 3 -7 -7 6
-10 4 -12 -9 -7 -9 4 -15 3 -12 -1 2 -4 -2 -15 -9 -25 -11 -15 -13 -16 -19 -2
-3 8 -1 15 5 15 6 0 9 6 6 13 -3 8 13 28 39 48 24 19 43 40 44 47 0 6 4 12 9
12 5 0 11 9 14 20 8 30 13 24 15 -16z m-138 -102 c0 -5 -7 -17 -15 -28 -14
-18 -15 -18 -11 6 3 14 5 26 5 28 2 6 21 1 21 -6z m1796 -13 c19 -22 19 -22
-3 -10 -13 6 -23 16 -23 21 0 15 5 12 26 -11z m-924 -31 c-15 -15 -26 -4 -18
18 5 13 9 15 18 6 9 -9 9 -15 0 -24z m68 -71 c0 -5 -4 -5 -10 -2 -5 3 -10 14
-10 23 0 15 2 15 10 2 5 -8 10 -19 10 -23z m-40 -127 c0 -5 -2 -10 -4 -10 -3
0 -8 5 -11 10 -3 6 -1 10 4 10 6 0 11 -4 11 -10z m760 -46 c0 -2 -9 -4 -21 -4
-11 0 -18 4 -14 10 5 8 35 3 35 -6z m170 12 c0 -3 -4 -8 -10 -11 -5 -3 -10 -1
-10 4 0 6 5 11 10 11 6 0 10 -2 10 -4z m-233 -48 c-3 -8 -6 -5 -6 6 -1 11 2
17 5 13 3 -3 4 -12 1 -19z m-22 -138 c3 -5 1 -10 -4 -10 -6 0 -11 5 -11 10 0
6 2 10 4 10 3 0 8 -4 11 -10z m-535 -10 c0 -5 -4 -10 -9 -10 -6 0 -13 5 -16
10 -3 6 1 10 9 10 9 0 16 -4 16 -10z m785 -17 c-11 -3 -23 -10 -27 -17 -5 -7
-8 -5 -8 7 0 12 7 17 28 16 21 -1 22 -2 7 -6z m55 -23 c8 -16 8 -20 -2 -18
-17 4 -28 20 -22 30 8 12 12 10 24 -12z m-2004 -37 c-10 -10 -19 5 -10 18 6
11 8 11 12 0 2 -7 1 -15 -2 -18z m2074 8 c0 -10 -51 -34 -57 -27 -3 3 1 11 8
18 14 15 49 21 49 9z m-880 -106 c0 -8 -2 -15 -4 -15 -2 0 -6 7 -10 15 -3 8
-1 15 4 15 6 0 10 -7 10 -15z m30 -35 c0 -11 -4 -20 -9 -20 -5 0 -7 9 -4 20 3
11 7 20 9 20 2 0 4 -9 4 -20z m9 -77 c-7 -7 -6 -13 1 -18 5 -3 10 -11 10 -18
0 -27 -22 14 -27 49 -4 37 -4 38 10 19 10 -13 12 -24 6 -32z m221 43 c0 -3 -4
-8 -10 -11 -5 -3 -10 -1 -10 4 0 6 5 11 10 11 6 0 10 -2 10 -4z m-270 -36 c0
-5 -2 -10 -4 -10 -3 0 -8 5 -11 10 -3 6 -1 10 4 10 6 0 11 -4 11 -10z m266
-10 c0 -13 -5 -19 -14 -15 -7 3 -16 5 -18 5 -12 0 -1 19 14 23 9 3 17 5 17 6
1 0 1 -8 1 -19z m572 -50 c6 0 12 -5 14 -11 3 -9 21 -15 51 -18 4 -1 7 -8 7
-16 0 -23 30 -34 62 -23 15 6 28 15 28 20 0 7 5 6 13 -1 8 -6 17 -8 20 -4 4 3
10 -3 14 -13 4 -10 16 -27 28 -36 12 -11 15 -17 7 -18 -7 0 -11 -4 -8 -8 7
-12 -72 -4 -97 10 -19 11 -20 13 -4 16 9 2 15 7 12 12 -7 12 -55 -13 -55 -29
0 -7 6 -11 15 -8 23 10 26 -8 5 -31 -24 -25 -25 -32 -6 -32 8 0 22 -10 31 -22
8 -13 20 -24 25 -24 6 -1 15 -2 20 -3 6 0 10 -11 10 -24 0 -13 5 -28 12 -35 7
-7 8 -12 2 -12 -6 0 -16 10 -22 23 -8 17 -11 18 -11 5 -1 -10 -12 -20 -26 -24
-14 -3 -25 -10 -25 -15 0 -5 -7 -6 -15 -3 -8 4 -15 1 -15 -6 0 -10 -3 -10 -15
0 -12 10 -16 9 -21 -4 -3 -9 -10 -16 -16 -16 -5 0 -6 6 -1 13 4 6 6 20 5 29
-3 14 3 17 27 14 17 -2 28 1 25 6 -3 5 6 6 20 2 22 -5 26 -3 26 15 0 12 -2 21
-4 21 -2 0 -11 3 -20 6 -11 4 -16 1 -16 -10 0 -18 -16 -22 -22 -5 -5 14 -38 0
-38 -16 0 -7 -6 -15 -14 -18 -9 -4 -12 -14 -9 -26 3 -11 2 -33 -1 -47 -7 -25
-8 -26 -21 -8 -14 18 -16 18 -29 1 -9 -12 -16 -14 -21 -7 -4 6 -16 8 -27 4
-14 -4 -18 -3 -13 5 4 7 1 18 -5 26 -7 8 -9 15 -5 15 4 0 2 7 -5 15 -7 8 -9
22 -6 31 4 9 1 23 -5 30 -6 7 -8 18 -4 25 4 6 1 16 -6 21 -10 7 -8 8 9 5 15
-4 22 -1 19 6 -2 7 -13 11 -23 9 -16 -2 -16 -1 -4 7 13 9 12 12 -5 26 -20 16
-20 16 1 6 11 -5 30 -9 41 -9 15 2 19 8 16 27 -4 25 -4 25 11 7 9 -11 16 -23
16 -27 0 -4 9 -9 20 -12 24 -6 26 5 5 23 -16 13 -21 35 -6 26 5 -3 11 3 14 14
3 11 1 23 -4 26 -5 3 -9 0 -9 -6 0 -7 -6 -10 -12 -8 -12 4 -21 103 -11 121 3
4 13 -1 23 -13 9 -11 22 -20 28 -20z m269 -22 c-3 -8 -6 -5 -6 6 -1 11 2 17 5
13 3 -3 4 -12 1 -19z m-1057 2 c0 -5 -4 -10 -10 -10 -5 0 -10 5 -10 10 0 6 5
10 10 10 6 0 10 -4 10 -10z m900 -1 c0 -8 4 -8 14 0 12 10 14 9 11 -6 -2 -10
-4 -21 -4 -25 -1 -9 -35 -11 -43 -2 -8 8 3 44 13 44 5 0 9 -5 9 -11z m67 5
c-3 -3 -12 -4 -19 -1 -8 3 -5 6 6 6 11 1 17 -2 13 -5z m206 -10 c15 -9 14 -11
-3 -22 -11 -7 -20 -8 -20 -3 0 8 -56 25 -72 22 -5 0 -8 3 -8 8 0 10 82 7 103
-5z m-2499 -40 c4 -9 4 -19 2 -21 -8 -8 -26 8 -26 23 0 19 16 18 24 -2z m1476
-29 c-14 -17 -30 -20 -30 -6 0 5 8 12 18 14 9 3 19 5 21 6 2 0 -2 -6 -9 -14z
m966 -31 c15 6 20 -9 5 -18 -14 -9 -71 17 -71 32 0 12 5 11 26 -3 14 -9 32
-14 40 -11z m-185 -61 c13 -16 12 -17 -3 -4 -17 13 -22 21 -14 21 2 0 10 -8
17 -17z m-341 -9 c0 -8 -4 -12 -10 -9 -5 3 -10 10 -10 16 0 5 5 9 10 9 6 0 10
-7 10 -16z m30 -59 c7 -9 20 -13 27 -10 10 3 13 -1 11 -12 -5 -26 -38 -29 -45
-4 -3 12 -12 21 -20 21 -8 0 -11 5 -8 10 9 14 21 12 35 -5z m40 -75 c0 -12 7
-20 18 -21 9 -1 1 -5 -18 -9 -39 -9 -54 -3 -28 11 10 5 15 16 12 24 -4 8 -1
15 5 15 6 0 11 -9 11 -20z m187 -36 c-3 -3 -12 -4 -19 -1 -8 3 -5 6 6 6 11 1
17 -2 13 -5z m103 -93 c0 -14 -44 -21 -55 -9 -7 8 -5 9 7 5 10 -3 20 -2 23 3
8 12 25 13 25 1z m-1990 -75 c0 -2 -7 -6 -15 -10 -8 -3 -15 -1 -15 4 0 6 7 10
15 10 8 0 15 -2 15 -4z m-40 -81 c-7 -8 -19 -15 -27 -15 -11 0 -11 3 -1 15 18
20 45 21 28 0z m1807 -111 c-3 -3 -12 -4 -19 -1 -8 3 -5 6 6 6 11 1 17 -2 13
-5z m-17 -24 c0 -5 -4 -10 -10 -10 -5 0 -10 5 -10 10 0 6 5 10 10 10 6 0 10
-4 10 -10z m210 0 c0 -5 9 -10 20 -10 11 0 20 4 20 9 0 10 26 9 36 -2 4 -4 -2
-7 -14 -7 -13 0 -22 -6 -22 -15 0 -18 -17 -20 -22 -3 -3 9 -10 7 -24 -6 -13
-14 -15 -21 -6 -23 9 -4 8 -9 -4 -20 -13 -14 -17 -13 -37 3 -12 10 -24 20 -26
22 -3 1 8 16 25 31 30 30 54 39 54 21z m-180 -20 c0 -5 -4 -10 -10 -10 -5 0
-10 5 -10 10 0 6 5 10 10 10 6 0 10 -4 10 -10z m-1597 -78 c-1 -44 -8 -72 -23
-98 l-22 -35 -21 33 c-24 41 -58 118 -52 119 3 1 8 3 13 4 4 2 17 6 30 10 12
4 22 14 22 22 0 10 9 13 28 11 26 -3 27 -4 25 -66z m1891 60 c7 -12 -33 -54
-45 -47 -5 4 -4 -5 3 -20 7 -15 17 -24 25 -21 7 3 13 -1 13 -9 0 -8 5 -15 11
-15 5 0 7 -5 4 -11 -5 -7 -13 -5 -24 5 -22 20 -31 20 -31 1 0 -19 -28 -34 -52
-27 -13 3 -18 11 -15 23 3 11 0 16 -8 13 -7 -3 -16 0 -21 7 -5 8 -3 10 6 4 10
-6 11 -2 6 18 -3 14 -2 29 4 32 5 3 10 -1 10 -9 0 -9 5 -16 10 -16 6 0 10 7
10 15 0 8 5 15 10 15 6 0 10 7 10 15 0 13 3 13 20 3 10 -7 23 -8 27 -4 4 5 2
11 -5 13 -6 3 -10 9 -6 14 7 11 31 12 38 1z m56 -52 c0 -5 -4 -10 -10 -10 -5
0 -10 5 -10 10 0 6 5 10 10 10 6 0 10 -4 10 -10z m-40 -10 c0 -5 -2 -10 -4
-10 -3 0 -8 5 -11 10 -3 6 -1 10 4 10 6 0 11 -4 11 -10z m49 -96 c-14 -17 -54
1 -42 19 5 8 8 8 11 -1 2 -7 11 -12 19 -12 13 0 14 2 2 18 -13 15 -12 16 4 3
13 -10 15 -17 6 -27z m424 12 c4 -10 0 -12 -14 -9 -22 6 -26 23 -5 23 8 0 16
-6 19 -14z m34 -31 c-4 -8 -12 -15 -19 -14 -10 0 -10 2 0 6 6 2 12 12 12 21 0
8 3 13 6 9 4 -3 4 -13 1 -22z m-2090 -57 c-3 -8 -6 -5 -6 6 -1 11 2 17 5 13 3
-3 4 -12 1 -19z m139 -15 c-7 -7 -26 7 -26 19 0 6 6 6 15 -2 9 -7 13 -15 11
-17z m1681 5 c-3 -8 -6 -5 -6 6 -1 11 2 17 5 13 3 -3 4 -12 1 -19z m-1769 -23
c-3 -3 -9 2 -12 12 -6 14 -5 15 5 6 7 -7 10 -15 7 -18z m1712 15 c0 -5 -2 -10
-4 -10 -3 0 -8 5 -11 10 -3 6 -1 10 4 10 6 0 11 -4 11 -10z m287 -6 c-3 -3
-12 -4 -19 -1 -8 3 -5 6 6 6 11 1 17 -2 13 -5z m-32 -14 c3 -5 1 -10 -4 -10
-6 0 -11 5 -11 10 0 6 2 10 4 10 3 0 8 -4 11 -10z m-1996 -55 c0 -5 -4 -3 -9
5 -5 8 -9 22 -9 30 0 16 17 -16 18 -35z m2200 24 c-22 -14 -33 -10 -19 6 7 8
17 12 22 9 6 -4 5 -10 -3 -15z m-2135 -4 c-4 -8 -10 -12 -15 -9 -14 8 -10 24
6 24 9 0 12 -6 9 -15z m-80 -70 c4 -13 2 -14 -14 -5 -23 13 -26 20 -6 20 8 0
16 -7 20 -15z m476 -116 c0 -6 -4 -7 -10 -4 -5 3 -10 11 -10 16 0 6 5 7 10 4
6 -3 10 -11 10 -16z m-510 -64 c0 -5 -5 -3 -10 5 -5 8 -10 20 -10 25 0 6 5 3
10 -5 5 -8 10 -19 10 -25z m750 -15 c0 -5 -4 -10 -10 -10 -5 0 -10 5 -10 10 0
6 5 10 10 10 6 0 10 -4 10 -10z"/>
<path d="M5738 6553 c6 -2 12 -17 13 -31 l1 -27 7 25 c9 30 5 40 -17 39 -11 0
-12 -3 -4 -6z"/>
<path d="M3345 5669 c-11 -17 1 -21 15 -4 8 9 8 15 2 15 -6 0 -14 -5 -17 -11z"/>
<path d="M2850 4179 c0 -5 5 -7 10 -4 6 3 10 8 10 11 0 2 -4 4 -10 4 -5 0 -10
-5 -10 -11z"/>
<path d="M3347 4121 c-3 -12 -1 -21 3 -21 15 0 23 21 12 32 -6 6 -11 2 -15
-11z"/>
<path d="M2664 4085 c-10 -8 -14 -15 -8 -15 6 0 17 7 24 15 16 19 9 19 -16 0z"/>
<path d="M3307 4074 c2 -7 11 -10 19 -7 19 7 18 10 -5 16 -13 3 -18 1 -14 -9z"/>
<path d="M2686 4055 c-9 -14 -14 -30 -11 -35 9 -14 35 -12 36 3 0 6 3 4 7 -5
5 -12 11 -15 22 -8 12 7 11 12 -9 29 -12 11 -20 25 -16 30 14 23 -14 9 -29
-14z"/>
<path d="M3413 4043 c-18 -7 -16 -23 3 -23 8 0 12 -4 9 -10 -3 -5 -2 -10 3
-10 5 0 10 11 10 25 0 25 -3 27 -25 18z"/>
<path d="M3345 3940 c-3 -6 1 -7 9 -4 18 7 21 14 7 14 -6 0 -13 -4 -16 -10z"/>
<path d="M3535 3920 c3 -5 8 -10 11 -10 2 0 4 5 4 10 0 6 -5 10 -11 10 -5 0
-7 -4 -4 -10z"/>
<path d="M3543 3883 c-7 -3 -13 -12 -13 -21 0 -15 2 -15 17 1 18 18 16 27 -4
20z"/>
<path d="M3380 3859 c0 -5 5 -7 10 -4 6 3 10 8 10 11 0 2 -4 4 -10 4 -5 0 -10
-5 -10 -11z"/>
<path d="M2816 3845 c-3 -9 0 -15 9 -15 8 0 15 7 15 15 0 8 -4 15 -9 15 -5 0
-11 -7 -15 -15z"/>
<path d="M3449 3773 c-13 -16 -12 -17 4 -4 16 13 21 21 13 21 -2 0 -10 -8 -17
-17z"/>
<path d="M2662 3758 c-14 -14 -16 -42 -3 -34 7 5 23 46 17 46 -1 0 -7 -5 -14
-12z"/>
<path d="M2656 3603 c-10 -10 -7 -53 4 -53 5 0 9 -10 7 -22 -1 -17 3 -23 18
-23 28 0 33 35 5 42 -17 4 -21 11 -17 30 4 24 -5 38 -17 26z"/>
<path d="M2630 3529 c0 -5 5 -7 10 -4 6 3 10 8 10 11 0 2 -4 4 -10 4 -5 0 -10
-5 -10 -11z"/>
<path d="M3310 3375 c-7 -8 -8 -15 -2 -15 5 0 15 7 22 15 7 8 8 15 2 15 -5 0
-15 -7 -22 -15z"/>
<path d="M2725 3210 c-3 -5 -1 -10 4 -10 6 0 11 5 11 10 0 6 -2 10 -4 10 -3 0
-8 -4 -11 -10z"/>
<path d="M2740 3099 c0 -5 5 -7 10 -4 6 3 10 8 10 11 0 2 -4 4 -10 4 -5 0 -10
-5 -10 -11z"/>
<path d="M2820 3080 c-9 -6 -10 -10 -3 -10 6 0 15 5 18 10 8 12 4 12 -15 0z"/>
<path d="M2845 2990 c-3 -5 -1 -10 4 -10 6 0 11 5 11 10 0 6 -2 10 -4 10 -3 0
-8 -4 -11 -10z"/>
<path d="M2920 2787 c0 -9 4 -18 9 -21 5 -4 8 1 7 9 -3 21 -16 31 -16 12z"/>
<path d="M3556 2723 c-11 -11 -6 -23 9 -23 8 0 15 4 15 9 0 13 -16 22 -24 14z"/>
<path d="M3636 2605 c4 -8 10 -12 15 -9 11 6 2 24 -11 24 -5 0 -7 -7 -4 -15z"/>
<path d="M3590 2550 c0 -5 5 -10 11 -10 5 0 7 5 4 10 -3 6 -8 10 -11 10 -2 0
-4 -4 -4 -10z"/>
<path d="M3465 2520 c-3 -5 -1 -10 4 -10 6 0 11 5 11 10 0 6 -2 10 -4 10 -3 0
-8 -4 -11 -10z"/>
<path d="M3470 2476 c0 -10 8 -16 22 -16 12 0 19 1 17 3 -2 1 -12 9 -21 16
-15 12 -18 11 -18 -3z"/>
<path d="M3530 2429 c0 -25 33 -22 38 4 2 12 -3 17 -17 17 -15 0 -21 -6 -21
-21z"/>
<path d="M3753 1883 c4 -3 -1 -12 -11 -19 -9 -7 -14 -15 -11 -19 8 -7 39 22
39 36 0 5 -5 9 -12 9 -6 0 -8 -3 -5 -7z"/>
<path d="M4225 5969 c-4 -6 -5 -12 -2 -15 2 -3 7 2 10 11 7 17 1 20 -8 4z"/>
<path d="M6140 5903 c0 -5 12 -20 26 -34 24 -21 26 -22 16 -3 -13 25 -42 50
-42 37z"/>
<path d="M3938 5763 c18 -2 45 -2 60 0 15 2 0 4 -33 4 -33 0 -45 -2 -27 -4z"/>
<path d="M3545 5729 c-4 -6 -5 -12 -2 -15 2 -3 7 2 10 11 7 17 1 20 -8 4z"/>
<path d="M3531 5684 c0 -11 3 -14 6 -6 3 7 2 16 -1 19 -3 4 -6 -2 -5 -13z"/>
<path d="M6382 5360 c0 -14 2 -19 5 -12 2 6 2 18 0 25 -3 6 -5 1 -5 -13z"/>
<path d="M5365 4960 c10 -11 23 -20 28 -20 6 0 2 9 -8 20 -10 11 -23 20 -28
20 -6 0 -2 -9 8 -20z"/>
<path d="M3975 4909 c-4 -6 -5 -13 -2 -16 7 -7 27 6 27 18 0 12 -17 12 -25 -2z"/>
<path d="M5621 4514 c0 -11 3 -14 6 -6 3 7 2 16 -1 19 -3 4 -6 -2 -5 -13z"/>
<path d="M4090 4330 c0 -5 5 -10 10 -10 6 0 10 5 10 10 0 6 -4 10 -10 10 -5 0
-10 -4 -10 -10z"/>
<path d="M4110 4290 c0 -5 5 -10 10 -10 6 0 10 5 10 10 0 6 -4 10 -10 10 -5 0
-10 -4 -10 -10z"/>
<path d="M4683 4098 c3 -17 19 -28 30 -21 9 5 -11 33 -24 33 -5 0 -8 -6 -6
-12z"/>
<path d="M4815 4080 c3 -5 11 -10 16 -10 6 0 7 5 4 10 -3 6 -11 10 -16 10 -6
0 -7 -4 -4 -10z"/>
<path d="M4341 3964 c0 -11 3 -14 6 -6 3 7 2 16 -1 19 -3 4 -6 -2 -5 -13z"/>
<path d="M4350 3895 c-10 -12 -10 -19 2 -33 20 -22 34 -77 17 -66 -8 4 -9 3
-5 -4 4 -7 12 -12 18 -12 6 0 17 -8 24 -17 7 -10 16 -15 20 -11 4 4 1 14 -6
23 -24 29 6 15 44 -21 21 -20 48 -59 61 -87 13 -29 24 -46 24 -40 1 21 -31 96
-54 128 -12 17 -27 46 -35 65 -16 43 -28 58 -53 72 -14 7 -17 7 -13 -1 10 -16
0 -14 -17 4 -13 13 -16 13 -27 0z"/>
<path d="M4119 3379 c-10 -6 -7 -9 14 -9 29 0 35 5 14 13 -8 3 -20 1 -28 -4z"/>
<path d="M4119 3336 c9 -11 9 -15 -1 -18 -9 -3 -9 -6 0 -12 7 -4 12 -2 12 5 0
7 9 5 22 -7 22 -18 22 -18 8 0 -14 18 -13 18 10 12 14 -4 8 2 -14 14 -47 24
-52 25 -37 6z"/>
<path d="M3952 3309 c2 -7 10 -15 17 -17 8 -3 12 1 9 9 -2 7 -10 15 -17 17 -8
3 -12 -1 -9 -9z"/>
<path d="M5391 3284 c0 -11 3 -14 6 -6 3 7 2 16 -1 19 -3 4 -6 -2 -5 -13z"/>
<path d="M4288 3283 c7 -3 16 -2 19 1 4 3 -2 6 -13 5 -11 0 -14 -3 -6 -6z"/>
<path d="M4195 3270 c4 -6 11 -8 16 -5 14 9 11 15 -7 15 -8 0 -12 -5 -9 -10z"/>
<path d="M4290 3245 c0 -8 7 -15 15 -15 8 0 15 7 15 15 0 8 -7 15 -15 15 -8 0
-15 -7 -15 -15z"/>
<path d="M4223 3242 c-8 -5 -9 -13 -3 -22 7 -12 12 -12 22 -2 14 14 -1 35 -19
24z"/>
<path d="M4253 3187 c2 -7 12 -14 21 -15 11 -3 17 1 14 9 -2 7 -12 13 -22 15
-9 1 -15 -3 -13 -9z"/>
<path d="M3740 3110 c-14 -10 -21 -22 -17 -26 4 -4 7 -2 7 5 0 7 5 9 10 6 6
-3 10 -1 10 5 0 7 7 10 15 6 9 -3 15 0 15 9 0 20 -10 19 -40 -5z"/>
<path d="M5419 3033 c-7 -27 -13 -50 -13 -52 -1 -3 19 -6 44 -7 43 -2 44 -2
13 7 -32 9 -32 10 -26 54 8 59 -1 57 -18 -2z"/>
<path d="M4536 2995 c-11 -8 -15 -15 -9 -15 6 0 16 7 23 15 16 19 11 19 -14 0z"/>
<path d="M4696 2902 c-4 -6 -13 -9 -21 -5 -8 3 -15 1 -15 -5 0 -11 48 -23 55
-13 2 4 0 13 -4 20 -6 9 -11 10 -15 3z"/>
<path d="M5377 2888 c-2 -13 -13 -57 -25 -98 -36 -135 -35 -130 -8 -130 14 0
37 5 53 12 15 6 31 11 36 10 4 -1 7 2 7 7 0 5 15 12 33 16 l32 8 -45 8 -45 7
51 -1 c35 -2 51 2 51 11 0 6 -5 12 -11 12 -6 0 -4 4 4 10 21 13 5 23 -18 11
-44 -23 -55 -1 -28 51 13 25 13 27 -2 26 -40 -3 -51 3 -57 32 -8 36 -21 39
-28 8z"/>
<path d="M4731 2884 c0 -11 3 -14 6 -6 3 7 2 16 -1 19 -3 4 -6 -2 -5 -13z"/>
<path d="M4800 2830 c0 -5 5 -10 10 -10 6 0 10 5 10 10 0 6 -4 10 -10 10 -5 0
-10 -4 -10 -10z"/>
<path d="M5535 2740 c-3 -6 1 -7 9 -4 18 7 21 14 7 14 -6 0 -13 -4 -16 -10z"/>
<path d="M4500 2641 c0 -6 5 -13 10 -16 6 -3 10 1 10 9 0 9 -4 16 -10 16 -5 0
-10 -4 -10 -9z"/>
<path d="M5301 2604 c0 -11 3 -14 6 -6 3 7 2 16 -1 19 -3 4 -6 -2 -5 -13z"/>
<path d="M4057 2513 c-13 -12 -7 -23 13 -23 11 0 20 7 20 15 0 15 -21 21 -33
8z"/>
<path d="M3715 2240 c-14 -16 -16 -23 -7 -32 17 -17 42 11 33 35 -6 17 -8 17
-26 -3z"/>
<path d="M3775 2250 c-3 -5 -1 -10 4 -10 6 0 11 5 11 10 0 6 -2 10 -4 10 -3 0
-8 -4 -11 -10z"/>
<path d="M3945 2249 c-11 -17 1 -21 15 -4 8 9 8 15 2 15 -6 0 -14 -5 -17 -11z"/>
<path d="M3865 2230 c-3 -6 1 -7 9 -4 18 7 21 14 7 14 -6 0 -13 -4 -16 -10z"/>
<path d="M3770 2215 c-7 -8 -19 -15 -26 -15 -8 0 -14 -5 -14 -10 0 -6 8 -10
17 -8 20 3 53 29 53 40 0 13 -17 9 -30 -7z"/>
<path d="M4596 2195 c-9 -26 -7 -32 5 -12 6 10 9 21 6 23 -2 3 -7 -2 -11 -11z"/>
<path d="M3910 2190 c0 -13 11 -13 30 0 12 8 11 10 -7 10 -13 0 -23 -4 -23
-10z"/>
<path d="M3851 2181 c-11 -7 -10 -13 9 -32 22 -24 22 -24 16 -2 -5 15 -2 25
11 32 17 10 17 10 -2 11 -11 0 -26 -4 -34 -9z"/>
<path d="M3990 2181 c0 -8 -7 -10 -20 -6 -11 4 -20 2 -20 -4 0 -14 37 -14 45
0 4 6 4 13 1 16 -3 4 -6 1 -6 -6z"/>
<path d="M4048 2176 c-14 -10 -13 -14 15 -29 17 -10 26 -12 20 -5 -6 7 -12 21
-14 30 -3 14 -7 14 -21 4z"/>
<path d="M3673 2173 c9 -2 17 -8 17 -13 0 -5 7 -7 15 -4 25 10 17 19 -18 20
-17 1 -24 -1 -14 -3z"/>
<path d="M3740 2160 c-8 -5 -11 -12 -8 -16 4 -3 14 1 23 10 18 17 9 21 -15 6z"/>
<path d="M3910 2149 c0 -5 5 -7 10 -4 6 3 10 8 10 11 0 2 -4 4 -10 4 -5 0 -10
-5 -10 -11z"/>
<path d="M3995 2140 c3 -5 8 -10 11 -10 2 0 4 5 4 10 0 6 -5 10 -11 10 -5 0
-7 -4 -4 -10z"/>
<path d="M3945 2130 c3 -5 14 -10 23 -10 15 0 15 2 2 10 -20 13 -33 13 -25 0z"/>
<path d="M3671 2121 c-8 -5 -21 -7 -30 -4 -9 3 -3 -4 14 -16 16 -11 31 -18 34
-15 3 3 -1 9 -9 14 -13 8 -12 10 3 10 9 0 17 5 17 10 0 12 -10 13 -29 1z"/>
<path d="M4030 2120 c0 -5 5 -10 10 -10 6 0 10 5 10 10 0 6 -4 10 -10 10 -5 0
-10 -4 -10 -10z"/>
<path d="M3753 2095 c2 -20 9 -31 21 -33 13 -3 16 0 11 8 -6 10 -1 12 19 8 18
-4 29 -1 33 8 3 8 11 14 18 14 8 0 16 4 20 9 7 12 -33 5 -49 -8 -14 -12 -58
-3 -68 13 -4 6 -6 -3 -5 -19z"/>
<path d="M3890 2109 c0 -5 5 -7 10 -4 6 3 10 8 10 11 0 2 -4 4 -10 4 -5 0 -10
-5 -10 -11z"/>
<path d="M3703 2087 c0 -7 9 -14 19 -14 22 -2 24 13 2 21 -21 8 -21 8 -21 -7z"/>
<path d="M3908 2083 c7 -3 16 -2 19 1 4 3 -2 6 -13 5 -11 0 -14 -3 -6 -6z"/>
<path d="M3960 2072 c0 -11 5 -24 10 -27 6 -4 9 2 7 14 -4 29 -17 39 -17 13z"/>
<path d="M3944 2035 c14 -14 28 -25 32 -25 4 0 -3 11 -16 25 -13 14 -27 25
-32 25 -5 0 2 -11 16 -25z"/>
<path d="M3995 2050 c-3 -5 -1 -10 4 -10 6 0 11 5 11 10 0 6 -2 10 -4 10 -3 0
-8 -4 -11 -10z"/>
<path d="M4090 2056 c0 -2 8 -10 18 -17 15 -13 16 -12 3 4 -13 16 -21 21 -21
13z"/>
<path d="M3630 2040 c0 -5 5 -10 11 -10 5 0 7 5 4 10 -3 6 -8 10 -11 10 -2 0
-4 -4 -4 -10z"/>
<path d="M4550 2035 c0 -12 -6 -27 -12 -34 -10 -11 -8 -10 10 0 25 16 26 18
12 39 -8 12 -10 11 -10 -5z"/>
<path d="M3595 2020 c-4 -6 -10 -8 -15 -5 -4 3 -13 -2 -20 -10 -11 -13 -8 -13
19 -4 31 11 51 29 32 29 -5 0 -13 -5 -16 -10z"/>
<path d="M3917 2019 c7 -7 15 -10 18 -7 3 3 -2 9 -12 12 -14 6 -15 5 -6 -5z"/>
<path d="M4630 2014 c0 -8 5 -12 10 -9 6 4 8 11 5 16 -9 14 -15 11 -15 -7z"/>
<path d="M3975 1990 c-3 -5 1 -10 9 -10 9 0 16 5 16 10 0 6 -4 10 -9 10 -6 0
-13 -4 -16 -10z"/>
<path d="M3925 1980 c4 -6 11 -8 16 -5 14 9 11 15 -7 15 -8 0 -12 -5 -9 -10z"/>
<path d="M4020 1961 c0 -5 5 -13 10 -16 6 -3 10 -2 10 4 0 5 -4 13 -10 16 -5
3 -10 2 -10 -4z"/>
<path d="M3955 1937 c-11 -11 -14 -17 -7 -13 15 9 16 -6 2 -20 -12 -12 -3 -44
12 -44 5 0 6 10 2 22 -6 20 -5 21 10 9 14 -11 16 -11 16 1 0 8 -6 20 -12 26
-10 10 -10 15 1 21 7 5 9 11 5 13 -5 3 -18 -4 -29 -15z"/>
<path d="M4144 1928 c3 -15 26 -23 26 -8 0 6 -4 9 -9 6 -5 -4 -12 -1 -14 4 -3
6 -4 5 -3 -2z"/>
<path d="M4210 1936 c0 -2 7 -9 15 -16 9 -7 15 -8 15 -2 0 5 -7 12 -15 16 -8
3 -15 4 -15 2z"/>
<path d="M4440 1919 c0 -5 5 -7 10 -4 6 3 10 8 10 11 0 2 -4 4 -10 4 -5 0 -10
-5 -10 -11z"/>
<path d="M4520 1922 c0 -4 5 -13 12 -20 9 -9 8 -12 -4 -12 -9 0 -19 6 -21 13
-3 6 -6 2 -6 -10 -1 -16 3 -20 19 -16 11 3 20 1 20 -4 0 -17 45 -9 63 11 21
23 8 33 -22 17 -27 -15 -36 -14 -22 3 9 11 9 16 0 22 -8 4 -9 3 -5 -4 4 -7 2
-12 -3 -12 -6 0 -11 5 -11 10 0 6 -4 10 -10 10 -5 0 -10 -4 -10 -8z"/>
<path d="M4327 1894 c3 -9 9 -11 12 -6 3 5 13 12 21 15 9 3 4 6 -12 6 -21 1
-26 -3 -21 -15z"/>
<path d="M4280 1892 c0 -5 7 -13 16 -16 10 -4 14 -1 12 6 -5 15 -28 23 -28 10z"/>
<path d="M4378 1873 c7 -3 16 -2 19 1 4 3 -2 6 -13 5 -11 0 -14 -3 -6 -6z"/>
<path d="M4412 1864 c-11 -12 -10 -14 3 -14 8 0 15 -7 15 -16 0 -8 4 -13 9
-10 9 6 4 43 -8 50 -3 2 -12 -2 -19 -10z"/>
<path d="M4112 1821 c2 -7 7 -12 11 -12 12 1 9 15 -3 20 -7 2 -11 -2 -8 -8z"/>
<path d="M4542 1805 c-8 -10 -9 -15 -2 -15 6 0 8 -4 5 -10 -3 -5 -2 -10 4 -10
5 0 13 5 16 10 3 6 2 10 -4 10 -6 0 -8 7 -5 15 8 19 3 19 -14 0z"/>
<path d="M4701 1766 c-8 -10 -9 -16 -1 -21 5 -3 13 1 16 10 9 22 -1 29 -15 11z"/>
<path d="M4487 1744 c-8 -8 1 -24 14 -24 5 0 9 7 9 15 0 15 -12 20 -23 9z"/>
<path d="M4525 1740 c3 -5 8 -10 11 -10 2 0 4 5 4 10 0 6 -5 10 -11 10 -5 0
-7 -4 -4 -10z"/>
<path d="M4687 1690 c-3 -8 -11 -42 -17 -75 -13 -77 -78 -275 -96 -296 -8 -8
-14 -21 -14 -27 0 -6 -8 -9 -17 -6 -15 5 -15 4 -4 -4 12 -9 8 -23 -23 -86 -21
-42 -53 -95 -70 -119 -36 -48 -59 -95 -51 -107 3 -4 -2 -10 -10 -14 -9 -3 -14
-15 -11 -28 1 -13 -4 -34 -12 -46 -13 -20 -13 -25 -1 -32 11 -7 10 -10 -4 -16
-21 -8 -45 -52 -42 -77 2 -9 -1 -15 -6 -11 -5 3 -9 -4 -9 -15 0 -10 -5 -21
-12 -23 -7 -3 -6 -12 6 -31 18 -26 18 -27 -8 -38 -14 -7 -23 -15 -21 -19 2 -4
-2 -15 -9 -26 -10 -12 -11 -26 -5 -41 10 -26 -7 -63 -29 -63 -7 0 -11 -4 -7
-9 3 -6 -4 -15 -16 -21 -11 -7 -18 -14 -16 -17 3 -2 -3 -13 -12 -22 -10 -10
-17 -29 -16 -42 2 -27 -14 -49 -31 -42 -14 5 -29 -51 -19 -67 4 -6 1 -9 -6 -8
-7 2 -13 -6 -14 -17 0 -12 -12 -25 -30 -34 -49 -24 -15 -23 68 2 68 20 79 27
95 57 26 50 118 192 180 280 67 94 202 370 236 482 37 120 71 362 47 328 -8
-11 -11 2 -11 52 0 70 19 109 21 41 l1 -38 9 33 c11 36 -3 268 -14 242z"/>
<path d="M2605 1640 c-3 -5 -1 -10 4 -10 6 0 11 5 11 10 0 6 -2 10 -4 10 -3 0
-8 -4 -11 -10z"/>
<path d="M4098 1453 c-39 -4 -54 -23 -18 -23 11 0 19 -6 18 -12 -4 -16 30 -11
47 5 12 12 9 38 -3 35 -4 -1 -24 -3 -44 -5z"/>
<path d="M3265 1410 c-3 -5 -1 -10 4 -10 6 0 11 5 11 10 0 6 -2 10 -4 10 -3 0
-8 -4 -11 -10z"/>
<path d="M2820 1400 c-10 -6 -11 -10 -2 -10 6 0 12 -7 12 -15 0 -8 5 -15 10
-15 6 0 10 11 10 25 0 27 -7 30 -30 15z"/>
<path d="M3040 1291 c0 -5 15 -19 33 -31 l32 -22 -25 22 c-14 13 -24 27 -22
31 1 5 -2 9 -8 9 -5 0 -10 -4 -10 -9z"/>
<path d="M4005 1290 c-3 -5 -2 -10 4 -10 5 0 13 5 16 10 3 6 2 10 -4 10 -5 0
-13 -4 -16 -10z"/>
<path d="M2370 1110 c0 -5 5 -10 11 -10 5 0 7 5 4 10 -3 6 -8 10 -11 10 -2 0
-4 -4 -4 -10z"/>
<path d="M2877 1113 c-12 -12 -7 -33 8 -33 17 0 19 9 7 28 -5 7 -11 9 -15 5z"/>
<path d="M4466 322 c-2 -4 13 -6 35 -4 21 2 39 6 39 8 0 7 -69 4 -74 -4z"/>
<path d="M4655 304 c34 -9 178 -45 205 -51 14 -3 30 -9 35 -13 6 -4 51 -24
100 -45 104 -45 164 -76 219 -116 22 -16 42 -26 45 -23 3 4 1 9 -6 11 -7 2
-29 18 -50 35 -117 93 -358 187 -516 202 -29 3 -43 3 -32 0z"/>
<path d="M2768 183 c6 -2 18 -2 25 0 6 3 1 5 -13 5 -14 0 -19 -2 -12 -5z"/>
<path d="M3918 153 c7 -3 16 -2 19 1 4 3 -2 6 -13 5 -11 0 -14 -3 -6 -6z"/>
<path d="M3550 100 c0 -5 7 -10 15 -10 8 0 15 5 15 10 0 6 -7 10 -15 10 -8 0
-15 -4 -15 -10z"/>
<path d="M3659 96 c-2 -3 -18 -7 -34 -10 -17 -2 -32 -5 -35 -5 -3 -1 3 -6 12
-11 18 -11 68 6 68 22 0 9 -4 10 -11 4z"/>
<path d="M3808 13 c7 -3 16 -2 19 1 4 3 -2 6 -13 5 -11 0 -14 -3 -6 -6z"/>
</g>
</svg>
